<svg width="27" height="20" viewBox="0 0 27 20" xmlns="http://www.w3.org/2000/svg">
<path fill-rule="evenodd" clip-rule="evenodd" fill="white" d="M2.48276 6.11576V3.86946H3.72414V2.74631H4.96552V1.62315H7.34483V0.5H11.069V1.71675L15.931 1.62315V0.5H19.6552V1.71675H22.1379V2.8399H23.2759V3.96305H24.5172V6.11576H25.7586V9.48522H27V16.1305H25.7586V17.2537H24.5172V18.3768H23.2759V19.4064H18.4138V18.3768H17.1724V17.2537H19.6552V16.1305H20.8966V15.0074H19.6552V16.1305H7.38078V15.0074H6.10345V16.1305H7.38078V17.2121H9.82759V18.3768H8.58621V19.5H4.86207V18.3768H2.48276V17.2537H1.24138V16.1305H0V9.48522H1.24138V6.11576H2.48276ZM7.34483 7.23892H9.82759V8.36207H11.069V10.6084H9.82759V11.7315H7.34483V10.6084H6.10345V8.36207H7.34483V7.23892ZM17.1724 8.36207H15.931V10.6084H17.1724V11.6379H19.6552V10.6084H20.8966V8.36207H19.6552V7.23892H17.1724V8.36207Z"/>
</svg>