<svg width="23" height="22" viewBox="0 0 23 22" fill="none" xmlns="http://www.w3.org/2000/svg">
<path d="M15.3333 8.8V7.7H16.4286V6.6H17.5238V5.5H18.619V4.4H19.7143V3.3H20.8095V2.2H21.9048V1.1H23V0H19.7143V1.1H18.619V2.2H17.5238V3.3H16.4286V4.4H15.3333V5.5H14.2381V6.6H12.0476V5.5H10.9524V4.4H9.85714V2.2H8.7619V1.1H7.66667V0H0V1.1H1.09524V2.2H2.19048V3.3H3.28571V5.5H4.38095V6.6H5.47619V8.8H6.57143V9.9H7.66667V12.1H8.7619V13.2H7.66667V14.3H6.57143V15.4H5.47619V16.5H4.38095V17.6H3.28571V18.7H2.19048V19.8H1.09524V20.9H0V22H3.28571V20.9H4.38095V19.8H5.47619V18.7H6.57143V17.6H7.66667V16.5H8.7619V15.4H10.9524V16.5H12.0476V17.6H13.1429V19.8H14.2381V20.9H15.3333V22H23V20.9H21.9048V19.8H20.8095V18.7H19.7143V16.5H18.619V15.4H17.5238V13.2H16.4286V12.1H15.3333V9.9H14.2381V8.8H15.3333ZM15.3333 13.2V14.3H16.4286V16.5H17.5238V17.6H18.619V19.8H15.3333V17.6H14.2381V16.5H13.1429V15.4H12.0476V13.2H10.9524V12.1H9.85714V11H8.7619V8.8H7.66667V7.7H6.57143V5.5H5.47619V4.4H4.38095V2.2H7.66667V3.3H8.7619V5.5H9.85714V6.6H10.9524V8.8H12.0476V9.9H13.1429V11H14.2381V13.2H15.3333Z" fill="white"/>
</svg>