{
  "accessors": [
    {
      "bufferView": 0,
      "byteOffset": 0,
      "count": 6,
      "componentType": 5126,
      "type": "VEC3",
      "min": [
        -0.029999999329447743,
        -0.019999999552965164,
        -0.009999999776482582
      ],
      "max": [
        -0.029999999329447743,
        0.019999999552965164,
        0.009999999776482582
      ]
    },
    {
      "bufferView": 0,
      "byteOffset": 12,
      "count": 6,
      "componentType": 5126,
      "type": "VEC3"
    },
    {
      "bufferView": 0,
      "byteOffset": 24,
      "count": 6,
      "componentType": 5126,
      "type": "VEC2"
    },
    {
      "bufferView": 1,
      "byteOffset": 0,
      "count": 6,
      "componentType": 5126,
      "type": "VEC3",
      "min": [
        -0.029999999329447743,
        -0.019999999552965164,
        -0.009999999776482582
      ],
      "max": [
        0.029999999329447743,
        -0.019999999552965164,
        0.009999999776482582
      ]
    },
    {
      "bufferView": 1,
      "byteOffset": 12,
      "count": 6,
      "componentType": 5126,
      "type": "VEC3"
    },
    {
      "bufferView": 1,
      "byteOffset": 24,
      "count": 6,
      "componentType": 5126,
      "type": "VEC2"
    },
    {
      "bufferView": 2,
      "byteOffset": 0,
      "count": 204,
      "componentType": 5126,
      "type": "VEC3",
      "min": [
        -0.029999999329447743,
        -0.019999999552965164,
        0.009999999776482582
      ],
      "max": [
        0.029999999329447743,
        0.019999999552965164,
        0.009999999776482582
      ]
    },
    {
      "bufferView": 2,
      "byteOffset": 12,
      "count": 204,
      "componentType": 5126,
      "type": "VEC3"
    },
    {
      "bufferView": 2,
      "byteOffset": 24,
      "count": 204,
      "componentType": 5126,
      "type": "VEC2"
    },
    {
      "bufferView": 3,
      "byteOffset": 0,
      "count": 6,
      "componentType": 5126,
      "type": "VEC3",
      "min": [
        -0.029999999329447743,
        0.019999999552965164,
        -0.009999999776482582
      ],
      "max": [
        0.029999999329447743,
        0.019999999552965164,
        0.009999999776482582
      ]
    },
    {
      "bufferView": 3,
      "byteOffset": 12,
      "count": 6,
      "componentType": 5126,
      "type": "VEC3"
    },
    {
      "bufferView": 3,
      "byteOffset": 24,
      "count": 6,
      "componentType": 5126,
      "type": "VEC2"
    },
    {
      "bufferView": 4,
      "byteOffset": 0,
      "count": 6,
      "componentType": 5126,
      "type": "VEC3",
      "min": [
        -0.029999999329447743,
        -0.019999999552965164,
        -0.009999999776482582
      ],
      "max": [
        0.029999999329447743,
        0.019999999552965164,
        -0.009999999776482582
      ]
    },
    {
      "bufferView": 4,
      "byteOffset": 12,
      "count": 6,
      "componentType": 5126,
      "type": "VEC3"
    },
    {
      "bufferView": 4,
      "byteOffset": 24,
      "count": 6,
      "componentType": 5126,
      "type": "VEC2"
    },
    {
      "bufferView": 5,
      "byteOffset": 0,
      "count": 6,
      "componentType": 5126,
      "type": "VEC3",
      "min": [
        0.029999999329447743,
        -0.019999999552965164,
        -0.009999999776482582
      ],
      "max": [
        0.029999999329447743,
        0.019999999552965164,
        0.009999999776482582
      ]
    },
    {
      "bufferView": 5,
      "byteOffset": 12,
      "count": 6,
      "componentType": 5126,
      "type": "VEC3"
    },
    {
      "bufferView": 5,
      "byteOffset": 24,
      "count": 6,
      "componentType": 5126,
      "type": "VEC2"
    },
    {
      "bufferView": 6,
      "byteOffset": 0,
      "count": 384,
      "componentType": 5126,
      "type": "VEC3",
      "min": [
        -0.004999999888241291,
        -0.004999999888241291,
        0.004999999888241291
      ],
      "max": [
        0.004999999888241291,
        0.004999999888241291,
        0.009999999776482582
      ]
    },
    {
      "bufferView": 6,
      "byteOffset": 12,
      "count": 384,
      "componentType": 5126,
      "type": "VEC3"
    },
    {
      "bufferView": 6,
      "byteOffset": 24,
      "count": 384,
      "componentType": 5126,
      "type": "VEC2"
    },
    {
      "bufferView": 7,
      "byteOffset": 0,
      "count": 186,
      "componentType": 5126,
      "type": "VEC3",
      "min": [
        -0.004999999888241291,
        -0.004999999888241291,
        0.004999999888241291
      ],
      "max": [
        0.004999999888241291,
        0.004999999888241291,
        0.004999999888241291
      ]
    },
    {
      "bufferView": 7,
      "byteOffset": 12,
      "count": 186,
      "componentType": 5126,
      "type": "VEC3"
    },
    {
      "bufferView": 7,
      "byteOffset": 24,
      "count": 186,
      "componentType": 5126,
      "type": "VEC2"
    }
  ],
  "asset": {
    "generator": "zoo.dev",
    "version": "2.0"
  },
  "buffers": [
    {
      "byteLength": 25728,
      "uri": "data:application/octet-stream;base64,"
    }
  ],
  "bufferViews": [
    {
      "buffer": 0,
      "byteLength": 192,
      "byteOffset": 0,
      "byteStride": 32,
      "target": 34962
    },
    {
      "buffer": 0,
      "byteLength": 192,
      "byteOffset": 192,
      "byteStride": 32,
      "target": 34962
    },
    {
      "buffer": 0,
      "byteLength": 6528,
      "byteOffset": 384,
      "byteStride": 32,
      "target": 34962
    },
    {
      "buffer": 0,
      "byteLength": 192,
      "byteOffset": 6912,
      "byteStride": 32,
      "target": 34962
    },
    {
      "buffer": 0,
      "byteLength": 192,
      "byteOffset": 7104,
      "byteStride": 32,
      "target": 34962
    },
    {
      "buffer": 0,
      "byteLength": 192,
      "byteOffset": 7296,
      "byteStride": 32,
      "target": 34962
    },
    {
      "buffer": 0,
      "byteLength": 12288,
      "byteOffset": 7488,
      "byteStride": 32,
      "target": 34962
    },
    {
      "buffer": 0,
      "byteLength": 5952,
      "byteOffset": 19776,
      "byteStride": 32,
      "target": 34962
    }
  ],
  "scene": 0,
  "extensions": {
    "KITTYCAD_boundary_representation": {
      "solids": [
        {
          "shells": [
            [
              0,
              1
            ]
          ],
          "mesh": 0
        }
      ],
      "shells": [
        {
          "faces": [
            [
              0,
              1
            ],
            [
              1,
              1
            ],
            [
              2,
              1
            ],
            [
              3,
              1
            ],
            [
              4,
              1
            ],
            [
              5,
              1
            ],
            [
              6,
              1
            ],
            [
              7,
              1
            ]
          ]
        }
      ],
      "faces": [
        {
          "surface": [
            0,
            -1
          ],
          "loops": [
            [
              0,
              1
            ]
          ]
        },
        {
          "surface": [
            1,
            -1
          ],
          "loops": [
            [
              1,
              1
            ]
          ]
        },
        {
          "surface": [
            2,
            1
          ],
          "loops": [
            [
              2,
              1
            ],
            [
              3,
              1
            ]
          ]
        },
        {
          "surface": [
            3,
            1
          ],
          "loops": [
            [
              4,
              1
            ]
          ]
        },
        {
          "surface": [
            4,
            -1
          ],
          "loops": [
            [
              5,
              1
            ]
          ]
        },
        {
          "surface": [
            5,
            1
          ],
          "loops": [
            [
              6,
              1
            ]
          ]
        },
        {
          "surface": [
            6,
            -1
          ],
          "loops": [
            [
              7,
              1
            ]
          ]
        },
        {
          "surface": [
            7,
            1
          ],
          "loops": [
            [
              8,
              1
            ]
          ]
        }
      ],
      "loops": [
        {
          "edges": [
            [
              0,
              -1
            ],
            [
              1,
              1
            ],
            [
              2,
              1
            ],
            [
              3,
              -1
            ]
          ]
        },
        {
          "edges": [
            [
              4,
              -1
            ],
            [
              0,
              1
            ],
            [
              5,
              1
            ],
            [
              6,
              -1
            ]
          ]
        },
        {
          "edges": [
            [
              3,
              -1
            ],
            [
              5,
              1
            ],
            [
              7,
              1
            ],
            [
              8,
              -1
            ]
          ]
        },
        {
          "edges": [
            [
              9,
              -1
            ]
          ]
        },
        {
          "edges": [
            [
              10,
              -1
            ],
            [
              2,
              1
            ],
            [
              8,
              1
            ],
            [
              11,
              -1
            ]
          ]
        },
        {
          "edges": [
            [
              1,
              -1
            ],
            [
              4,
              1
            ],
            [
              12,
              1
            ],
            [
              10,
              -1
            ]
          ]
        },
        {
          "edges": [
            [
              6,
              -1
            ],
            [
              12,
              1
            ],
            [
              11,
              1
            ],
            [
              7,
              -1
            ]
          ]
        },
        {
          "edges": [
            [
              13,
              1
            ],
            [
              14,
              1
            ],
            [
              13,
              -1
            ],
            [
              9,
              -1
            ]
          ]
        },
        {
          "edges": [
            [
              14,
              1
            ]
          ]
        }
      ],
      "edges": [
        {
          "curve": [
            0,
            1
          ],
          "start": 0,
          "end": 1,
          "t": [
            0,
            0.02
          ]
        },
        {
          "curve": [
            1,
            1
          ],
          "start": 0,
          "end": 2,
          "t": [
            0,
            0.04
          ]
        },
        {
          "curve": [
            2,
            1
          ],
          "start": 2,
          "end": 3,
          "t": [
            0,
            0.02
          ]
        },
        {
          "curve": [
            3,
            1
          ],
          "start": 1,
          "end": 3,
          "t": [
            0,
            0.04
          ]
        },
        {
          "curve": [
            4,
            1
          ],
          "start": 0,
          "end": 4,
          "t": [
            0,
            0.06000000000000001
          ]
        },
        {
          "curve": [
            5,
            1
          ],
          "start": 1,
          "end": 5,
          "t": [
            0,
            0.06000000000000001
          ]
        },
        {
          "curve": [
            6,
            1
          ],
          "start": 4,
          "end": 5,
          "t": [
            0,
            0.02
          ]
        },
        {
          "curve": [
            7,
            1
          ],
          "start": 5,
          "end": 6,
          "t": [
            0,
            0.04
          ]
        },
        {
          "curve": [
            8,
            1
          ],
          "start": 3,
          "end": 6,
          "t": [
            0,
            0.06000000000000001
          ]
        },
        {
          "curve": [
            9,
            1
          ],
          "start": null,
          "end": null,
          "closed": true,
          "t": [
            0,
            6.28319
          ]
        },
        {
          "curve": [
            10,
            1
          ],
          "start": 2,
          "end": 8,
          "t": [
            0,
            0.06000000000000001
          ]
        },
        {
          "curve": [
            11,
            1
          ],
          "start": 8,
          "end": 6,
          "t": [
            0,
            0.02
          ]
        },
        {
          "curve": [
            12,
            1
          ],
          "start": 4,
          "end": 8,
          "t": [
            0,
            0.04
          ]
        },
        {
          "curve": [
            13,
            1
          ],
          "start": 7,
          "end": 9,
          "t": [
            0,
            0.005
          ]
        },
        {
          "curve": [
            14,
            1
          ],
          "start": null,
          "end": null,
          "closed": true,
          "t": [
            0,
            6.28319
          ]
        }
      ],
      "vertices": [
        [
          -0.03000000000000001,
          -0.02,
          -0.01
        ],
        [
          -0.03000000000000001,
          -0.02,
          0.01
        ],
        [
          -0.03000000000000001,
          0.02,
          -0.01
        ],
        [
          -0.03000000000000001,
          0.02,
          0.01
        ],
        [
          0.03000000000000001,
          -0.02,
          -0.01
        ],
        [
          0.03000000000000001,
          -0.02,
          0.01
        ],
        [
          0.03000000000000001,
          0.02,
          0.01
        ],
        [
          0.005,
          0,
          0.01
        ],
        [
          0.03000000000000001,
          0.02,
          -0.01
        ],
        [
          0.005,
          0,
          0.005
        ]
      ],
      "surfaces": [
        {
          "type": "plane",
          "plane": {
            "normal": [
              1,
              0,
              -0
            ],
            "point": [
              -0.03000000000000001,
              -0.02,
              -0.01
            ]
          }
        },
        {
          "type": "plane",
          "plane": {
            "normal": [
              0,
              1,
              0
            ],
            "point": [
              -0.03000000000000001,
              -0.02,
              -0.01
            ]
          }
        },
        {
          "type": "plane",
          "plane": {
            "normal": [
              0,
              0,
              1
            ],
            "point": [
              -0.03000000000000001,
              -0.02,
              0.01
            ]
          }
        },
        {
          "type": "plane",
          "plane": {
            "normal": [
              0,
              1,
              0
            ],
            "point": [
              -0.03000000000000001,
              0.02,
              -0.01
            ]
          }
        },
        {
          "type": "plane",
          "plane": {
            "normal": [
              0,
              0,
              1
            ],
            "point": [
              -0.03000000000000001,
              -0.02,
              -0.01
            ]
          }
        },
        {
          "type": "plane",
          "plane": {
            "normal": [
              1,
              0,
              -0
            ],
            "point": [
              0.03000000000000001,
              -0.02,
              -0.01
            ]
          }
        },
        {
          "type": "cylinder",
          "cylinder": {
            "circle": {
              "origin": [
                0,
                0,
                0.01
              ],
              "radius": 0.005,
              "normal": [
                0,
                0,
                1
              ],
              "xbasis": [
                1,
                0,
                -0
              ]
            },
            "height": 0
          }
        },
        {
          "type": "plane",
          "plane": {
            "normal": [
              0,
              0,
              1
            ],
            "point": [
              -0,
              0,
              0.005
            ]
          }
        }
      ],
      "curves": [
        {
          "type": "line",
          "line": {
            "origin": [
              -0.03000000000000001,
              -0.02,
              -0.01
            ],
            "direction": [
              0,
              0,
              1
            ]
          }
        },
        {
          "type": "line",
          "line": {
            "origin": [
              -0.03000000000000001,
              -0.02,
              -0.01
            ],
            "direction": [
              0,
              1,
              0
            ]
          }
        },
        {
          "type": "line",
          "line": {
            "origin": [
              -0.03000000000000001,
              0.02,
              -0.01
            ],
            "direction": [
              0,
              0,
              1
            ]
          }
        },
        {
          "type": "line",
          "line": {
            "origin": [
              -0.03000000000000001,
              -0.02,
              0.01
            ],
            "direction": [
              0,
              1,
              0
            ]
          }
        },
        {
          "type": "line",
          "line": {
            "origin": [
              -0.03000000000000001,
              -0.02,
              -0.01
            ],
            "direction": [
              1,
              0,
              -0
            ]
          }
        },
        {
          "type": "line",
          "line": {
            "origin": [
              -0.03000000000000001,
              -0.02,
              0.01
            ],
            "direction": [
              1,
              0,
              -0
            ]
          }
        },
        {
          "type": "line",
          "line": {
            "origin": [
              0.03000000000000001,
              -0.02,
              -0.01
            ],
            "direction": [
              0,
              0,
              1
            ]
          }
        },
        {
          "type": "line",
          "line": {
            "origin": [
              0.03000000000000001,
              -0.02,
              0.01
            ],
            "direction": [
              0,
              1,
              0
            ]
          }
        },
        {
          "type": "line",
          "line": {
            "origin": [
              -0.03000000000000001,
              0.02,
              0.01
            ],
            "direction": [
              1,
              0,
              -0
            ]
          }
        },
        {
          "type": "circle",
          "circle": {
            "origin": [
              0,
              0,
              0.01
            ],
            "radius": 0.005,
            "normal": [
              0,
              0,
              1
            ],
            "xbasis": [
              1,
              0,
              -0
            ]
          }
        },
        {
          "type": "line",
          "line": {
            "origin": [
              -0.03000000000000001,
              0.02,
              -0.01
            ],
            "direction": [
              1,
              0,
              -0
            ]
          }
        },
        {
          "type": "line",
          "line": {
            "origin": [
              0.03000000000000001,
              0.02,
              -0.01
            ],
            "direction": [
              0,
              0,
              1
            ]
          }
        },
        {
          "type": "line",
          "line": {
            "origin": [
              0.03000000000000001,
              -0.02,
              -0.01
            ],
            "direction": [
              0,
              1,
              0
            ]
          }
        },
        {
          "type": "line",
          "line": {
            "origin": [
              0.005,
              0,
              0.01
            ],
            "direction": [
              0,
              0,
              -1
            ]
          }
        },
        {
          "type": "circle",
          "circle": {
            "origin": [
              0,
              0,
              0.005
            ],
            "radius": 0.005,
            "normal": [
              0,
              0,
              1
            ],
            "xbasis": [
              1,
              0,
              -0
            ]
          }
        }
      ]
    }
  },
  "extensionsUsed": [
    "KITTYCAD_boundary_representation"
  ],
  "meshes": [
    {
      "primitives": [
        {
          "attributes": {
            "POSITION": 0,
            "NORMAL": 1,
            "TEXCOORD_0": 2
          }
        },
        {
          "attributes": {
            "POSITION": 3,
            "NORMAL": 4,
            "TEXCOORD_0": 5
          }
        },
        {
          "attributes": {
            "POSITION": 6,
            "NORMAL": 7,
            "TEXCOORD_0": 8
          }
        },
        {
          "attributes": {
            "POSITION": 9,
            "NORMAL": 10,
            "TEXCOORD_0": 11
          }
        },
        {
          "attributes": {
            "POSITION": 12,
            "NORMAL": 13,
            "TEXCOORD_0": 14
          }
        },
        {
          "attributes": {
            "POSITION": 15,
            "NORMAL": 16,
            "TEXCOORD_0": 17
          }
        },
        {
          "attributes": {
            "POSITION": 18,
            "NORMAL": 19,
            "TEXCOORD_0": 20
          }
        },
        {
          "attributes": {
            "POSITION": 21,
            "NORMAL": 22,
            "TEXCOORD_0": 23
          }
        }
      ]
    }
  ],
  "nodes": [
    {
      "children": [
        1
      ]
    },
    {
      "children": [
        2
      ]
    },
    {
      "extensions": {
        "KITTYCAD_boundary_representation": {
          "solid": 0
        }
      },
      "mesh": 0
    }
  ],
  "scenes": [
    {
      "nodes": [
        0
      ]
    }
  ]
}