solid unnamed
facet normal -1 0 0
    outer loop
        vertex -0.03 -0.01 0.02
        vertex -0.03 0.01 0.02
        vertex -0.03 -0.01 -0.02
    endloop
endfacet
facet normal -1 0 -0
    outer loop
        vertex -0.03 0.01 0.02
        vertex -0.03 0.01 -0.02
        vertex -0.03 -0.01 -0.02
    endloop
endfacet
facet normal 0 0 -1
    outer loop
        vertex 0.03 -0.01 -0.02
        vertex -0.03 0.01 -0.02
        vertex 0.03 0.01 -0.02
    endloop
endfacet
facet normal 0 0 -1
    outer loop
        vertex -0.03 -0.01 -0.02
        vertex -0.03 0.01 -0.02
        vertex 0.03 -0.01 -0.02
    endloop
endfacet
facet normal 0 -1 0
    outer loop
        vertex 0.0049759233 -0.01 0.0004900857
        vertex 0.03 -0.01 0.02
        vertex 0.0049039265 -0.01 0.0009754516
    endloop
endfacet
facet normal 0 -1 0
    outer loop
        vertex 0.0049759233 -0.01 0.0004900857
        vertex 0.005 -0.01 0
        vertex 0.03 -0.01 0.02
    endloop
endfacet
facet normal 0 -0.99999994 0
    outer loop
        vertex 0.0049039265 -0.01 0.0009754516
        vertex 0.03 -0.01 0.02
        vertex 0.004784702 -0.01 0.0014514234
    endloop
endfacet
facet normal 0 -1 0
    outer loop
        vertex 0.004784702 -0.01 0.0014514234
        vertex 0.03 -0.01 0.02
        vertex 0.0046193977 -0.01 0.0019134172
    endloop
endfacet
facet normal 0 -0.99999994 0
    outer loop
        vertex 0.0046193977 -0.01 0.0019134172
        vertex 0.03 -0.01 0.02
        vertex 0.0044096066 -0.01 0.0023569837
    endloop
endfacet
facet normal 0 -1 0
    outer loop
        vertex 0.0044096066 -0.01 0.0023569837
        vertex 0.03 -0.01 0.02
        vertex 0.004157348 -0.01 0.0027778512
    endloop
endfacet
facet normal 0 -0.99999994 0
    outer loop
        vertex 0.004157348 -0.01 0.0027778512
        vertex 0.03 -0.01 0.02
        vertex 0.0038650522 -0.01 0.0031719664
    endloop
endfacet
facet normal 0 -0.99999994 0
    outer loop
        vertex 0.0038650522 -0.01 0.0031719664
        vertex 0.03 -0.01 0.02
        vertex 0.0035355338 -0.01 0.0035355338
    endloop
endfacet
facet normal 0 -0.99999994 0
    outer loop
        vertex 0.0035355338 -0.01 0.0035355338
        vertex 0.03 -0.01 0.02
        vertex 0.0031719664 -0.01 0.0038650522
    endloop
endfacet
facet normal 0 -0.99999994 0
    outer loop
        vertex 0.0031719664 -0.01 0.0038650522
        vertex 0.03 -0.01 0.02
        vertex 0.0027778512 -0.01 0.004157348
    endloop
endfacet
facet normal 0 -1 0
    outer loop
        vertex 0.0027778512 -0.01 0.004157348
        vertex 0.03 -0.01 0.02
        vertex 0.0023569837 -0.01 0.0044096066
    endloop
endfacet
facet normal 0 -1 0
    outer loop
        vertex 0.0023569837 -0.01 0.0044096066
        vertex 0.03 -0.01 0.02
        vertex 0.0019134172 -0.01 0.0046193977
    endloop
endfacet
facet normal 0 -1 0
    outer loop
        vertex 0.0019134172 -0.01 0.0046193977
        vertex 0.03 -0.01 0.02
        vertex 0.0014514234 -0.01 0.004784702
    endloop
endfacet
facet normal 0 -1 0
    outer loop
        vertex 0.0014514234 -0.01 0.004784702
        vertex 0.03 -0.01 0.02
        vertex 0.0009754516 -0.01 0.0049039265
    endloop
endfacet
facet normal 0 -1 0
    outer loop
        vertex 0.0004900857 -0.01 0.0049759233
        vertex 0.0009754516 -0.01 0.0049039265
        vertex 0.03 -0.01 0.02
    endloop
endfacet
facet normal 0 -1 0
    outer loop
        vertex 0.0000000000000000003061617 -0.01 0.005
        vertex 0.0004900857 -0.01 0.0049759233
        vertex 0.03 -0.01 0.02
    endloop
endfacet
facet normal 0 -0.99999994 0
    outer loop
        vertex -0.03 -0.01 0.02
        vertex 0.0000000000000000003061617 -0.01 0.005
        vertex 0.03 -0.01 0.02
    endloop
endfacet
facet normal 0 -1 0
    outer loop
        vertex -0.03 -0.01 0.02
        vertex -0.0004900857 -0.01 0.0049759233
        vertex 0.0000000000000000003061617 -0.01 0.005
    endloop
endfacet
facet normal 0 -1 0
    outer loop
        vertex -0.03 -0.01 0.02
        vertex -0.0009754516 -0.01 0.0049039265
        vertex -0.0004900857 -0.01 0.0049759233
    endloop
endfacet
facet normal 0 -1 0
    outer loop
        vertex -0.03 -0.01 0.02
        vertex -0.0014514234 -0.01 0.004784702
        vertex -0.0009754516 -0.01 0.0049039265
    endloop
endfacet
facet normal -0 -1 0
    outer loop
        vertex -0.0023569837 -0.01 0.0044096066
        vertex -0.03 -0.01 0.02
        vertex -0.0027778512 -0.01 0.004157348
    endloop
endfacet
facet normal 0 -1 0
    outer loop
        vertex -0.0023569837 -0.01 0.0044096066
        vertex -0.0019134172 -0.01 0.0046193977
        vertex -0.03 -0.01 0.02
    endloop
endfacet
facet normal -0 -1 0
    outer loop
        vertex -0.0027778512 -0.01 0.004157348
        vertex -0.03 -0.01 0.02
        vertex -0.0031719664 -0.01 0.0038650522
    endloop
endfacet
facet normal -0 -0.99999994 0
    outer loop
        vertex -0.0031719664 -0.01 0.0038650522
        vertex -0.03 -0.01 0.02
        vertex -0.0035355338 -0.01 0.0035355338
    endloop
endfacet
facet normal -0 -0.99999994 0
    outer loop
        vertex -0.0035355338 -0.01 0.0035355338
        vertex -0.03 -0.01 0.02
        vertex -0.0038650522 -0.01 0.0031719664
    endloop
endfacet
facet normal -0 -0.99999994 0
    outer loop
        vertex -0.0038650522 -0.01 0.0031719664
        vertex -0.03 -0.01 0.02
        vertex -0.004157348 -0.01 0.0027778512
    endloop
endfacet
facet normal -0 -1 0
    outer loop
        vertex -0.004157348 -0.01 0.0027778512
        vertex -0.03 -0.01 0.02
        vertex -0.0044096066 -0.01 0.0023569837
    endloop
endfacet
facet normal -0 -1 0
    outer loop
        vertex -0.0044096066 -0.01 0.0023569837
        vertex -0.03 -0.01 0.02
        vertex -0.0046193977 -0.01 0.0019134172
    endloop
endfacet
facet normal -0 -1 0
    outer loop
        vertex -0.0046193977 -0.01 0.0019134172
        vertex -0.03 -0.01 0.02
        vertex -0.004784702 -0.01 0.0014514234
    endloop
endfacet
facet normal -0 -1 0
    outer loop
        vertex -0.004784702 -0.01 0.0014514234
        vertex -0.03 -0.01 0.02
        vertex -0.0049039265 -0.01 0.0009754516
    endloop
endfacet
facet normal -0 -1 0
    outer loop
        vertex -0.0049039265 -0.01 0.0009754516
        vertex -0.03 -0.01 0.02
        vertex -0.0049759233 -0.01 0.0004900857
    endloop
endfacet
facet normal 0 -0.99999994 0
    outer loop
        vertex -0.03 -0.01 0.02
        vertex -0.0019134172 -0.01 0.0046193977
        vertex -0.0014514234 -0.01 0.004784702
    endloop
endfacet
facet normal 0 -1 0
    outer loop
        vertex -0.005 -0.01 0.0000000000000000006123234
        vertex -0.0049759233 -0.01 0.0004900857
        vertex -0.03 -0.01 0.02
    endloop
endfacet
facet normal 0 -1 0
    outer loop
        vertex -0.03 -0.01 -0.02
        vertex -0.005 -0.01 0.0000000000000000006123234
        vertex -0.03 -0.01 0.02
    endloop
endfacet
facet normal 0 -0.99999994 0
    outer loop
        vertex -0.03 -0.01 -0.02
        vertex -0.0049759233 -0.01 -0.0004900857
        vertex -0.005 -0.01 0.0000000000000000006123234
    endloop
endfacet
facet normal 0 -1 0
    outer loop
        vertex -0.03 -0.01 -0.02
        vertex -0.0049039265 -0.01 -0.0009754516
        vertex -0.0049759233 -0.01 -0.0004900857
    endloop
endfacet
facet normal 0 -0.99999994 0
    outer loop
        vertex -0.03 -0.01 -0.02
        vertex -0.004784702 -0.01 -0.0014514234
        vertex -0.0049039265 -0.01 -0.0009754516
    endloop
endfacet
facet normal 0 -1 0
    outer loop
        vertex -0.03 -0.01 -0.02
        vertex -0.0046193977 -0.01 -0.0019134172
        vertex -0.004784702 -0.01 -0.0014514234
    endloop
endfacet
facet normal 0 -1 0
    outer loop
        vertex -0.03 -0.01 -0.02
        vertex -0.0044096066 -0.01 -0.0023569837
        vertex -0.0046193977 -0.01 -0.0019134172
    endloop
endfacet
facet normal 0 -1 0
    outer loop
        vertex -0.03 -0.01 -0.02
        vertex -0.004157348 -0.01 -0.0027778512
        vertex -0.0044096066 -0.01 -0.0023569837
    endloop
endfacet
facet normal 0 -1 0
    outer loop
        vertex -0.03 -0.01 -0.02
        vertex -0.0038650522 -0.01 -0.0031719664
        vertex -0.004157348 -0.01 -0.0027778512
    endloop
endfacet
facet normal 0 -0.99999994 -0
    outer loop
        vertex -0.0031719664 -0.01 -0.0038650522
        vertex -0.03 -0.01 -0.02
        vertex -0.0027778512 -0.01 -0.004157348
    endloop
endfacet
facet normal -0 -0.99999994 0
    outer loop
        vertex -0.0031719664 -0.01 -0.0038650522
        vertex -0.0035355338 -0.01 -0.0035355338
        vertex -0.03 -0.01 -0.02
    endloop
endfacet
facet normal 0 -1 -0
    outer loop
        vertex -0.0027778512 -0.01 -0.004157348
        vertex -0.03 -0.01 -0.02
        vertex -0.0023569837 -0.01 -0.0044096066
    endloop
endfacet
facet normal 0 -1 -0
    outer loop
        vertex -0.0023569837 -0.01 -0.0044096066
        vertex -0.03 -0.01 -0.02
        vertex -0.0019134172 -0.01 -0.0046193977
    endloop
endfacet
facet normal 0 -1 -0
    outer loop
        vertex -0.0019134172 -0.01 -0.0046193977
        vertex -0.03 -0.01 -0.02
        vertex -0.0014514234 -0.01 -0.004784702
    endloop
endfacet
facet normal 0 -1 -0
    outer loop
        vertex -0.0014514234 -0.01 -0.004784702
        vertex -0.03 -0.01 -0.02
        vertex -0.0009754516 -0.01 -0.0049039265
    endloop
endfacet
facet normal 0 -1 -0
    outer loop
        vertex -0.0009754516 -0.01 -0.0049039265
        vertex -0.03 -0.01 -0.02
        vertex -0.0004900857 -0.01 -0.0049759233
    endloop
endfacet
facet normal -0 -1 0
    outer loop
        vertex -0.000000000000000000918485 -0.01 -0.005
        vertex -0.0004900857 -0.01 -0.0049759233
        vertex -0.03 -0.01 -0.02
    endloop
endfacet
facet normal 0 -0.99999994 0
    outer loop
        vertex 0.03 -0.01 -0.02
        vertex -0.000000000000000000918485 -0.01 -0.005
        vertex -0.03 -0.01 -0.02
    endloop
endfacet
facet normal 0 -1 0
    outer loop
        vertex 0.03 -0.01 -0.02
        vertex 0.0004900857 -0.01 -0.0049759233
        vertex -0.000000000000000000918485 -0.01 -0.005
    endloop
endfacet
facet normal 0 -1 0
    outer loop
        vertex 0.03 -0.01 -0.02
        vertex 0.0009754516 -0.01 -0.0049039265
        vertex 0.0004900857 -0.01 -0.0049759233
    endloop
endfacet
facet normal 0 -1 0
    outer loop
        vertex 0.03 -0.01 -0.02
        vertex 0.0014514234 -0.01 -0.004784702
        vertex 0.0009754516 -0.01 -0.0049039265
    endloop
endfacet
facet normal 0 -1 0
    outer loop
        vertex 0.0023569837 -0.01 -0.0044096066
        vertex 0.03 -0.01 -0.02
        vertex 0.0027778512 -0.01 -0.004157348
    endloop
endfacet
facet normal 0 -1 -0
    outer loop
        vertex 0.0023569837 -0.01 -0.0044096066
        vertex 0.0019134172 -0.01 -0.0046193977
        vertex 0.03 -0.01 -0.02
    endloop
endfacet
facet normal 0 -1 0
    outer loop
        vertex 0.0027778512 -0.01 -0.004157348
        vertex 0.03 -0.01 -0.02
        vertex 0.0031719664 -0.01 -0.0038650522
    endloop
endfacet
facet normal 0 -0.99999994 0
    outer loop
        vertex 0.0031719664 -0.01 -0.0038650522
        vertex 0.03 -0.01 -0.02
        vertex 0.0035355338 -0.01 -0.0035355338
    endloop
endfacet
facet normal 0 -0.99999994 0
    outer loop
        vertex 0.0035355338 -0.01 -0.0035355338
        vertex 0.03 -0.01 -0.02
        vertex 0.0038650522 -0.01 -0.0031719664
    endloop
endfacet
facet normal 0 -0.99999994 0
    outer loop
        vertex 0.0038650522 -0.01 -0.0031719664
        vertex 0.03 -0.01 -0.02
        vertex 0.004157348 -0.01 -0.0027778512
    endloop
endfacet
facet normal 0 -1 0
    outer loop
        vertex 0.004157348 -0.01 -0.0027778512
        vertex 0.03 -0.01 -0.02
        vertex 0.0044096066 -0.01 -0.0023569837
    endloop
endfacet
facet normal 0 -1 0
    outer loop
        vertex 0.0044096066 -0.01 -0.0023569837
        vertex 0.03 -0.01 -0.02
        vertex 0.0046193977 -0.01 -0.0019134172
    endloop
endfacet
facet normal 0 -1 0
    outer loop
        vertex 0.0046193977 -0.01 -0.0019134172
        vertex 0.03 -0.01 -0.02
        vertex 0.004784702 -0.01 -0.0014514234
    endloop
endfacet
facet normal 0 -1 0
    outer loop
        vertex 0.004784702 -0.01 -0.0014514234
        vertex 0.03 -0.01 -0.02
        vertex 0.0049039265 -0.01 -0.0009754516
    endloop
endfacet
facet normal 0 -1 0
    outer loop
        vertex 0.0049039265 -0.01 -0.0009754516
        vertex 0.03 -0.01 -0.02
        vertex 0.0049759233 -0.01 -0.0004900857
    endloop
endfacet
facet normal 0 -1 0
    outer loop
        vertex -0.03 -0.01 -0.02
        vertex -0.0035355338 -0.01 -0.0035355338
        vertex -0.0038650522 -0.01 -0.0031719664
    endloop
endfacet
facet normal 0 -1 0
    outer loop
        vertex 0.005 -0.01 0
        vertex 0.03 -0.01 -0.02
        vertex 0.03 -0.01 0.02
    endloop
endfacet
facet normal 0 -1 -0
    outer loop
        vertex 0.005 -0.01 0
        vertex 0.0049759233 -0.01 -0.0004900857
        vertex 0.03 -0.01 -0.02
    endloop
endfacet
facet normal 0 -0.99999994 0
    outer loop
        vertex 0.03 -0.01 -0.02
        vertex 0.0019134172 -0.01 -0.0046193977
        vertex 0.0014514234 -0.01 -0.004784702
    endloop
endfacet
facet normal 0 -0 1
    outer loop
        vertex 0.03 -0.01 0.02
        vertex 0.03 0.01 0.02
        vertex -0.03 0.01 0.02
    endloop
endfacet
facet normal 0 0 1
    outer loop
        vertex -0.03 -0.01 0.02
        vertex 0.03 -0.01 0.02
        vertex -0.03 0.01 0.02
    endloop
endfacet
facet normal 0 1 0
    outer loop
        vertex 0.03 0.01 0.02
        vertex -0.03 0.01 -0.02
        vertex -0.03 0.01 0.02
    endloop
endfacet
facet normal 0 1 -0
    outer loop
        vertex 0.03 0.01 -0.02
        vertex -0.03 0.01 -0.02
        vertex 0.03 0.01 0.02
    endloop
endfacet
facet normal 1 -0 0
    outer loop
        vertex 0.03 -0.01 0.02
        vertex 0.03 -0.01 -0.02
        vertex 0.03 0.01 0.02
    endloop
endfacet
facet normal 1 0 0
    outer loop
        vertex 0.03 0.01 0.02
        vertex 0.03 -0.01 -0.02
        vertex 0.03 0.01 -0.02
    endloop
endfacet
facet normal -0.98917663 0 -0.14672966
    outer loop
        vertex 0.0049759233 -0.01 0.0004900857
        vertex 0.0049039265 -0.01 0.0009754516
        vertex 0.0049759233 -0.005 0.0004900857
    endloop
endfacet
facet normal -0.9700313 0 -0.24298003
    outer loop
        vertex 0.0049039265 -0.01 0.0009754516
        vertex 0.004784702 -0.01 0.0014514234
        vertex 0.0049039265 -0.005 0.0009754516
    endloop
endfacet
facet normal -0.9700313 0 -0.24298003
    outer loop
        vertex 0.004784702 -0.01 0.0014514234
        vertex 0.004784702 -0.005 0.0014514234
        vertex 0.0049039265 -0.005 0.0009754516
    endloop
endfacet
facet normal -0.941544 0 -0.3368901
    outer loop
        vertex 0.0046193977 -0.01 0.0019134172
        vertex 0.0046193977 -0.005 0.0019134172
        vertex 0.004784702 -0.005 0.0014514234
    endloop
endfacet
facet normal -0.90398943 0 -0.42755476
    outer loop
        vertex 0.0044096066 -0.01 0.0023569837
        vertex 0.0046193977 -0.005 0.0019134172
        vertex 0.0046193977 -0.01 0.0019134172
    endloop
endfacet
facet normal -0.85772836 0 -0.5141031
    outer loop
        vertex 0.004157348 -0.01 0.0027778512
        vertex 0.0044096066 -0.005 0.0023569837
        vertex 0.0044096066 -0.01 0.0023569837
    endloop
endfacet
facet normal -0.85772836 -0 -0.5141031
    outer loop
        vertex 0.004157348 -0.005 0.0027778512
        vertex 0.0044096066 -0.005 0.0023569837
        vertex 0.004157348 -0.01 0.0027778512
    endloop
endfacet
facet normal -0.80320746 -0 -0.59569937
    outer loop
        vertex 0.0038650522 -0.005 0.0031719664
        vertex 0.004157348 -0.005 0.0027778512
        vertex 0.0038650522 -0.01 0.0031719664
    endloop
endfacet
facet normal -0.74095094 -0 -0.67155915
    outer loop
        vertex 0.0038650522 -0.005 0.0031719664
        vertex 0.0038650522 -0.01 0.0031719664
        vertex 0.0035355338 -0.01 0.0035355338
    endloop
endfacet
facet normal -0.67155915 -0 -0.74095094
    outer loop
        vertex 0.0035355338 -0.005 0.0035355338
        vertex 0.0035355338 -0.01 0.0035355338
        vertex 0.0031719664 -0.01 0.0038650522
    endloop
endfacet
facet normal -0.67155915 0 -0.74095094
    outer loop
        vertex 0.0035355338 -0.005 0.0035355338
        vertex 0.0031719664 -0.01 0.0038650522
        vertex 0.0031719664 -0.005 0.0038650522
    endloop
endfacet
facet normal -0.59569937 0 -0.80320746
    outer loop
        vertex 0.0031719664 -0.005 0.0038650522
        vertex 0.0027778512 -0.01 0.004157348
        vertex 0.0027778512 -0.005 0.004157348
    endloop
endfacet
facet normal -0.5141031 0 -0.85772836
    outer loop
        vertex 0.0027778512 -0.01 0.004157348
        vertex 0.0023569837 -0.01 0.0044096066
        vertex 0.0027778512 -0.005 0.004157348
    endloop
endfacet
facet normal -0.42755476 0 -0.90398943
    outer loop
        vertex 0.0023569837 -0.01 0.0044096066
        vertex 0.0019134172 -0.01 0.0046193977
        vertex 0.0023569837 -0.005 0.0044096066
    endloop
endfacet
facet normal -0.42755476 0 -0.90398943
    outer loop
        vertex 0.0019134172 -0.01 0.0046193977
        vertex 0.0019134172 -0.005 0.0046193977
        vertex 0.0023569837 -0.005 0.0044096066
    endloop
endfacet
facet normal -0.3368901 0 -0.941544
    outer loop
        vertex 0.0014514234 -0.01 0.004784702
        vertex 0.0014514234 -0.005 0.004784702
        vertex 0.0019134172 -0.005 0.0046193977
    endloop
endfacet
facet normal -0.24298003 0 -0.9700313
    outer loop
        vertex 0.0009754516 -0.01 0.0049039265
        vertex 0.0014514234 -0.005 0.004784702
        vertex 0.0014514234 -0.01 0.004784702
    endloop
endfacet
facet normal -0.14672966 0 -0.98917663
    outer loop
        vertex 0.0004900857 -0.01 0.0049759233
        vertex 0.0009754516 -0.005 0.0049039265
        vertex 0.0009754516 -0.01 0.0049039265
    endloop
endfacet
facet normal -0.14672966 -0 -0.98917663
    outer loop
        vertex 0.0004900857 -0.005 0.0049759233
        vertex 0.0009754516 -0.005 0.0049039265
        vertex 0.0004900857 -0.01 0.0049759233
    endloop
endfacet
facet normal -0.049068052 -0 -0.99879545
    outer loop
        vertex 0.0000000000000000003061617 -0.005 0.005
        vertex 0.0004900857 -0.005 0.0049759233
        vertex 0.0000000000000000003061617 -0.01 0.005
    endloop
endfacet
facet normal 0.049068052 0 -0.99879545
    outer loop
        vertex 0.0000000000000000003061617 -0.005 0.005
        vertex 0.0000000000000000003061617 -0.01 0.005
        vertex -0.0004900857 -0.01 0.0049759233
    endloop
endfacet
facet normal 0.14672966 0 -0.98917663
    outer loop
        vertex -0.0004900857 -0.005 0.0049759233
        vertex -0.0004900857 -0.01 0.0049759233
        vertex -0.0009754516 -0.01 0.0049039265
    endloop
endfacet
facet normal 0.14672966 0 -0.98917663
    outer loop
        vertex -0.0004900857 -0.005 0.0049759233
        vertex -0.0009754516 -0.01 0.0049039265
        vertex -0.0009754516 -0.005 0.0049039265
    endloop
endfacet
facet normal 0.24298003 0 -0.9700313
    outer loop
        vertex -0.0009754516 -0.005 0.0049039265
        vertex -0.0014514234 -0.01 0.004784702
        vertex -0.0014514234 -0.005 0.004784702
    endloop
endfacet
facet normal 0.3368901 0 -0.941544
    outer loop
        vertex -0.0014514234 -0.01 0.004784702
        vertex -0.0019134172 -0.01 0.0046193977
        vertex -0.0014514234 -0.005 0.004784702
    endloop
endfacet
facet normal 0.42755476 0 -0.90398943
    outer loop
        vertex -0.0019134172 -0.01 0.0046193977
        vertex -0.0023569837 -0.01 0.0044096066
        vertex -0.0019134172 -0.005 0.0046193977
    endloop
endfacet
facet normal 0.42755476 0 -0.90398943
    outer loop
        vertex -0.0023569837 -0.01 0.0044096066
        vertex -0.0023569837 -0.005 0.0044096066
        vertex -0.0019134172 -0.005 0.0046193977
    endloop
endfacet
facet normal 0.5141031 0 -0.85772836
    outer loop
        vertex -0.0027778512 -0.01 0.004157348
        vertex -0.0027778512 -0.005 0.004157348
        vertex -0.0023569837 -0.005 0.0044096066
    endloop
endfacet
facet normal 0.59569937 0 -0.80320746
    outer loop
        vertex -0.0031719664 -0.01 0.0038650522
        vertex -0.0027778512 -0.005 0.004157348
        vertex -0.0027778512 -0.01 0.004157348
    endloop
endfacet
facet normal 0.67155915 0 -0.74095094
    outer loop
        vertex -0.0035355338 -0.01 0.0035355338
        vertex -0.0031719664 -0.005 0.0038650522
        vertex -0.0031719664 -0.01 0.0038650522
    endloop
endfacet
facet normal 0.67155915 0 -0.74095094
    outer loop
        vertex -0.0035355338 -0.005 0.0035355338
        vertex -0.0031719664 -0.005 0.0038650522
        vertex -0.0035355338 -0.01 0.0035355338
    endloop
endfacet
facet normal 0.74095094 0 -0.67155915
    outer loop
        vertex -0.0038650522 -0.005 0.0031719664
        vertex -0.0035355338 -0.005 0.0035355338
        vertex -0.0038650522 -0.01 0.0031719664
    endloop
endfacet
facet normal 0.80320746 0 -0.59569937
    outer loop
        vertex -0.0038650522 -0.005 0.0031719664
        vertex -0.0038650522 -0.01 0.0031719664
        vertex -0.004157348 -0.01 0.0027778512
    endloop
endfacet
facet normal 0.85772836 0 -0.5141031
    outer loop
        vertex -0.004157348 -0.005 0.0027778512
        vertex -0.004157348 -0.01 0.0027778512
        vertex -0.0044096066 -0.01 0.0023569837
    endloop
endfacet
facet normal 0.85772836 0 -0.5141031
    outer loop
        vertex -0.004157348 -0.005 0.0027778512
        vertex -0.0044096066 -0.01 0.0023569837
        vertex -0.0044096066 -0.005 0.0023569837
    endloop
endfacet
facet normal 0.90398943 0 -0.42755476
    outer loop
        vertex -0.0044096066 -0.005 0.0023569837
        vertex -0.0046193977 -0.01 0.0019134172
        vertex -0.0046193977 -0.005 0.0019134172
    endloop
endfacet
facet normal 0.941544 0 -0.3368901
    outer loop
        vertex -0.0046193977 -0.01 0.0019134172
        vertex -0.004784702 -0.01 0.0014514234
        vertex -0.0046193977 -0.005 0.0019134172
    endloop
endfacet
facet normal 0.9700313 0 -0.24298003
    outer loop
        vertex -0.004784702 -0.01 0.0014514234
        vertex -0.0049039265 -0.01 0.0009754516
        vertex -0.004784702 -0.005 0.0014514234
    endloop
endfacet
facet normal 0.9700313 0 -0.24298003
    outer loop
        vertex -0.0049039265 -0.01 0.0009754516
        vertex -0.0049039265 -0.005 0.0009754516
        vertex -0.004784702 -0.005 0.0014514234
    endloop
endfacet
facet normal 0.98917663 0 -0.14672966
    outer loop
        vertex -0.0049759233 -0.01 0.0004900857
        vertex -0.0049759233 -0.005 0.0004900857
        vertex -0.0049039265 -0.005 0.0009754516
    endloop
endfacet
facet normal 0.99879545 0 -0.049068052
    outer loop
        vertex -0.005 -0.01 0.0000000000000000006123234
        vertex -0.0049759233 -0.005 0.0004900857
        vertex -0.0049759233 -0.01 0.0004900857
    endloop
endfacet
facet normal 0.99879545 0 0.049068052
    outer loop
        vertex -0.0049759233 -0.01 -0.0004900857
        vertex -0.005 -0.005 0.0000000000000000006123234
        vertex -0.005 -0.01 0.0000000000000000006123234
    endloop
endfacet
facet normal 0.98917663 0 0.14672966
    outer loop
        vertex -0.0049039265 -0.01 -0.0009754516
        vertex -0.0049759233 -0.005 -0.0004900857
        vertex -0.0049759233 -0.01 -0.0004900857
    endloop
endfacet
facet normal 0.98917663 0 0.14672966
    outer loop
        vertex -0.0049039265 -0.005 -0.0009754516
        vertex -0.0049759233 -0.005 -0.0004900857
        vertex -0.0049039265 -0.01 -0.0009754516
    endloop
endfacet
facet normal 0.9700313 0 0.24298003
    outer loop
        vertex -0.004784702 -0.005 -0.0014514234
        vertex -0.0049039265 -0.005 -0.0009754516
        vertex -0.004784702 -0.01 -0.0014514234
    endloop
endfacet
facet normal 0.941544 0 0.3368901
    outer loop
        vertex -0.004784702 -0.005 -0.0014514234
        vertex -0.004784702 -0.01 -0.0014514234
        vertex -0.0046193977 -0.01 -0.0019134172
    endloop
endfacet
facet normal 0.90398943 0 0.42755476
    outer loop
        vertex -0.0046193977 -0.005 -0.0019134172
        vertex -0.0046193977 -0.01 -0.0019134172
        vertex -0.0044096066 -0.01 -0.0023569837
    endloop
endfacet
facet normal 0.90398943 0 0.42755476
    outer loop
        vertex -0.0046193977 -0.005 -0.0019134172
        vertex -0.0044096066 -0.01 -0.0023569837
        vertex -0.0044096066 -0.005 -0.0023569837
    endloop
endfacet
facet normal 0.85772836 0 0.5141031
    outer loop
        vertex -0.0044096066 -0.005 -0.0023569837
        vertex -0.004157348 -0.01 -0.0027778512
        vertex -0.004157348 -0.005 -0.0027778512
    endloop
endfacet
facet normal 0.80320746 -0 0.59569937
    outer loop
        vertex -0.004157348 -0.01 -0.0027778512
        vertex -0.0038650522 -0.01 -0.0031719664
        vertex -0.004157348 -0.005 -0.0027778512
    endloop
endfacet
facet normal 0.74095094 -0 0.67155915
    outer loop
        vertex -0.0038650522 -0.01 -0.0031719664
        vertex -0.0035355338 -0.01 -0.0035355338
        vertex -0.0038650522 -0.005 -0.0031719664
    endloop
endfacet
facet normal 0.74095094 -0 0.67155915
    outer loop
        vertex -0.0035355338 -0.01 -0.0035355338
        vertex -0.0035355338 -0.005 -0.0035355338
        vertex -0.0038650522 -0.005 -0.0031719664
    endloop
endfacet
facet normal 0.67155915 -0 0.74095094
    outer loop
        vertex -0.0031719664 -0.01 -0.0038650522
        vertex -0.0031719664 -0.005 -0.0038650522
        vertex -0.0035355338 -0.005 -0.0035355338
    endloop
endfacet
facet normal 0.59569937 0 0.80320746
    outer loop
        vertex -0.0027778512 -0.01 -0.004157348
        vertex -0.0031719664 -0.005 -0.0038650522
        vertex -0.0031719664 -0.01 -0.0038650522
    endloop
endfacet
facet normal 0.5141031 0 0.85772836
    outer loop
        vertex -0.0023569837 -0.01 -0.0044096066
        vertex -0.0027778512 -0.005 -0.004157348
        vertex -0.0027778512 -0.01 -0.004157348
    endloop
endfacet
facet normal 0.5141031 0 0.85772836
    outer loop
        vertex -0.0023569837 -0.005 -0.0044096066
        vertex -0.0027778512 -0.005 -0.004157348
        vertex -0.0023569837 -0.01 -0.0044096066
    endloop
endfacet
facet normal 0.42755476 0 0.90398943
    outer loop
        vertex -0.0019134172 -0.005 -0.0046193977
        vertex -0.0023569837 -0.005 -0.0044096066
        vertex -0.0019134172 -0.01 -0.0046193977
    endloop
endfacet
facet normal 0.3368901 0 0.941544
    outer loop
        vertex -0.0019134172 -0.005 -0.0046193977
        vertex -0.0019134172 -0.01 -0.0046193977
        vertex -0.0014514234 -0.01 -0.004784702
    endloop
endfacet
facet normal 0.24298003 0 0.9700313
    outer loop
        vertex -0.0014514234 -0.005 -0.004784702
        vertex -0.0014514234 -0.01 -0.004784702
        vertex -0.0009754516 -0.01 -0.0049039265
    endloop
endfacet
facet normal 0.24298003 0 0.9700313
    outer loop
        vertex -0.0014514234 -0.005 -0.004784702
        vertex -0.0009754516 -0.01 -0.0049039265
        vertex -0.0009754516 -0.005 -0.0049039265
    endloop
endfacet
facet normal 0.14672966 0 0.98917663
    outer loop
        vertex -0.0009754516 -0.005 -0.0049039265
        vertex -0.0004900857 -0.01 -0.0049759233
        vertex -0.0004900857 -0.005 -0.0049759233
    endloop
endfacet
facet normal -0.3368901 0 0.941544
    outer loop
        vertex 0.0019134172 -0.005 -0.0046193977
        vertex 0.0014514234 -0.005 -0.004784702
        vertex 0.0019134172 -0.01 -0.0046193977
    endloop
endfacet
facet normal -0.42755476 0 0.90398943
    outer loop
        vertex 0.0023569837 -0.01 -0.0044096066
        vertex 0.0019134172 -0.005 -0.0046193977
        vertex 0.0019134172 -0.01 -0.0046193977
    endloop
endfacet
facet normal -0.80320746 0 0.59569937
    outer loop
        vertex 0.0038650522 -0.005 -0.0031719664
        vertex 0.004157348 -0.01 -0.0027778512
        vertex 0.004157348 -0.005 -0.0027778512
    endloop
endfacet
facet normal -0.85772836 0 0.5141031
    outer loop
        vertex 0.004157348 -0.005 -0.0027778512
        vertex 0.004157348 -0.01 -0.0027778512
        vertex 0.0044096066 -0.01 -0.0023569837
    endloop
endfacet
facet normal -0.99879545 0 0.049068052
    outer loop
        vertex 0.0049759233 -0.005 -0.0004900857
        vertex 0.005 -0.01 0
        vertex 0.005 -0.005 0
    endloop
endfacet
facet normal -0.99879545 0 0.049068052
    outer loop
        vertex 0.0049759233 -0.01 -0.0004900857
        vertex 0.005 -0.01 0
        vertex 0.0049759233 -0.005 -0.0004900857
    endloop
endfacet
facet normal -0.98917663 0 0.14672966
    outer loop
        vertex 0.0049759233 -0.01 -0.0004900857
        vertex 0.0049759233 -0.005 -0.0004900857
        vertex 0.0049039265 -0.005 -0.0009754516
    endloop
endfacet
facet normal -0.98917663 0 0.14672966
    outer loop
        vertex 0.0049039265 -0.005 -0.0009754516
        vertex 0.0049039265 -0.01 -0.0009754516
        vertex 0.0049759233 -0.01 -0.0004900857
    endloop
endfacet
facet normal -0.9700313 0 0.24298003
    outer loop
        vertex 0.004784702 -0.005 -0.0014514234
        vertex 0.0049039265 -0.01 -0.0009754516
        vertex 0.0049039265 -0.005 -0.0009754516
    endloop
endfacet
facet normal -0.9700313 0 0.24298003
    outer loop
        vertex 0.004784702 -0.01 -0.0014514234
        vertex 0.0049039265 -0.01 -0.0009754516
        vertex 0.004784702 -0.005 -0.0014514234
    endloop
endfacet
facet normal -0.941544 0 0.3368901
    outer loop
        vertex 0.004784702 -0.01 -0.0014514234
        vertex 0.004784702 -0.005 -0.0014514234
        vertex 0.0046193977 -0.005 -0.0019134172
    endloop
endfacet
facet normal -0.941544 0 0.3368901
    outer loop
        vertex 0.004784702 -0.01 -0.0014514234
        vertex 0.0046193977 -0.005 -0.0019134172
        vertex 0.0046193977 -0.01 -0.0019134172
    endloop
endfacet
facet normal -0.90398943 0 0.42755476
    outer loop
        vertex 0.0046193977 -0.005 -0.0019134172
        vertex 0.0044096066 -0.005 -0.0023569837
        vertex 0.0046193977 -0.01 -0.0019134172
    endloop
endfacet
facet normal -0.90398943 0 0.42755476
    outer loop
        vertex 0.0044096066 -0.005 -0.0023569837
        vertex 0.0044096066 -0.01 -0.0023569837
        vertex 0.0046193977 -0.01 -0.0019134172
    endloop
endfacet
facet normal -0.85772836 0 0.5141031
    outer loop
        vertex 0.004157348 -0.005 -0.0027778512
        vertex 0.0044096066 -0.01 -0.0023569837
        vertex 0.0044096066 -0.005 -0.0023569837
    endloop
endfacet
facet normal -0.80320746 0 0.59569937
    outer loop
        vertex 0.0038650522 -0.01 -0.0031719664
        vertex 0.004157348 -0.01 -0.0027778512
        vertex 0.0038650522 -0.005 -0.0031719664
    endloop
endfacet
facet normal -0.74095094 0 0.67155915
    outer loop
        vertex 0.0038650522 -0.01 -0.0031719664
        vertex 0.0038650522 -0.005 -0.0031719664
        vertex 0.0035355338 -0.005 -0.0035355338
    endloop
endfacet
facet normal -0.74095094 0 0.67155915
    outer loop
        vertex 0.0038650522 -0.01 -0.0031719664
        vertex 0.0035355338 -0.005 -0.0035355338
        vertex 0.0035355338 -0.01 -0.0035355338
    endloop
endfacet
facet normal -0.67155915 0 0.74095094
    outer loop
        vertex 0.0035355338 -0.005 -0.0035355338
        vertex 0.0031719664 -0.005 -0.0038650522
        vertex 0.0035355338 -0.01 -0.0035355338
    endloop
endfacet
facet normal -0.67155915 0 0.74095094
    outer loop
        vertex 0.0031719664 -0.005 -0.0038650522
        vertex 0.0031719664 -0.01 -0.0038650522
        vertex 0.0035355338 -0.01 -0.0035355338
    endloop
endfacet
facet normal -0.59569937 0 0.80320746
    outer loop
        vertex 0.0027778512 -0.005 -0.004157348
        vertex 0.0031719664 -0.01 -0.0038650522
        vertex 0.0031719664 -0.005 -0.0038650522
    endloop
endfacet
facet normal -0.59569937 0 0.80320746
    outer loop
        vertex 0.0027778512 -0.01 -0.004157348
        vertex 0.0031719664 -0.01 -0.0038650522
        vertex 0.0027778512 -0.005 -0.004157348
    endloop
endfacet
facet normal -0.5141031 0 0.85772836
    outer loop
        vertex 0.0027778512 -0.01 -0.004157348
        vertex 0.0027778512 -0.005 -0.004157348
        vertex 0.0023569837 -0.005 -0.0044096066
    endloop
endfacet
facet normal -0.5141031 0 0.85772836
    outer loop
        vertex 0.0027778512 -0.01 -0.004157348
        vertex 0.0023569837 -0.005 -0.0044096066
        vertex 0.0023569837 -0.01 -0.0044096066
    endloop
endfacet
facet normal -0.42755476 0 0.90398943
    outer loop
        vertex 0.0023569837 -0.005 -0.0044096066
        vertex 0.0019134172 -0.005 -0.0046193977
        vertex 0.0023569837 -0.01 -0.0044096066
    endloop
endfacet
facet normal -0.3368901 0 0.941544
    outer loop
        vertex 0.0014514234 -0.005 -0.004784702
        vertex 0.0014514234 -0.01 -0.004784702
        vertex 0.0019134172 -0.01 -0.0046193977
    endloop
endfacet
facet normal -0.24298003 0 0.9700313
    outer loop
        vertex 0.0009754516 -0.005 -0.0049039265
        vertex 0.0014514234 -0.01 -0.004784702
        vertex 0.0014514234 -0.005 -0.004784702
    endloop
endfacet
facet normal -0.24298003 0 0.9700313
    outer loop
        vertex 0.0009754516 -0.01 -0.0049039265
        vertex 0.0014514234 -0.01 -0.004784702
        vertex 0.0009754516 -0.005 -0.0049039265
    endloop
endfacet
facet normal -0.14672966 0 0.98917663
    outer loop
        vertex 0.0009754516 -0.01 -0.0049039265
        vertex 0.0009754516 -0.005 -0.0049039265
        vertex 0.0004900857 -0.005 -0.0049759233
    endloop
endfacet
facet normal -0.14672966 0 0.98917663
    outer loop
        vertex 0.0009754516 -0.01 -0.0049039265
        vertex 0.0004900857 -0.005 -0.0049759233
        vertex 0.0004900857 -0.01 -0.0049759233
    endloop
endfacet
facet normal -0.049068052 0 0.99879545
    outer loop
        vertex 0.0004900857 -0.005 -0.0049759233
        vertex -0.000000000000000000918485 -0.005 -0.005
        vertex 0.0004900857 -0.01 -0.0049759233
    endloop
endfacet
facet normal -0.049068052 0 0.99879545
    outer loop
        vertex -0.000000000000000000918485 -0.005 -0.005
        vertex -0.000000000000000000918485 -0.01 -0.005
        vertex 0.0004900857 -0.01 -0.0049759233
    endloop
endfacet
facet normal 0.049068052 0 0.99879545
    outer loop
        vertex -0.0004900857 -0.005 -0.0049759233
        vertex -0.000000000000000000918485 -0.01 -0.005
        vertex -0.000000000000000000918485 -0.005 -0.005
    endloop
endfacet
facet normal 0.049068052 -0 0.99879545
    outer loop
        vertex -0.0004900857 -0.01 -0.0049759233
        vertex -0.000000000000000000918485 -0.01 -0.005
        vertex -0.0004900857 -0.005 -0.0049759233
    endloop
endfacet
facet normal 0.14672966 0 0.98917663
    outer loop
        vertex -0.0004900857 -0.01 -0.0049759233
        vertex -0.0009754516 -0.005 -0.0049039265
        vertex -0.0009754516 -0.01 -0.0049039265
    endloop
endfacet
facet normal 0.3368901 -0 0.941544
    outer loop
        vertex -0.0014514234 -0.01 -0.004784702
        vertex -0.0014514234 -0.005 -0.004784702
        vertex -0.0019134172 -0.005 -0.0046193977
    endloop
endfacet
facet normal 0.42755476 -0 0.90398943
    outer loop
        vertex -0.0023569837 -0.01 -0.0044096066
        vertex -0.0019134172 -0.01 -0.0046193977
        vertex -0.0023569837 -0.005 -0.0044096066
    endloop
endfacet
facet normal 0.59569937 0 0.80320746
    outer loop
        vertex -0.0031719664 -0.005 -0.0038650522
        vertex -0.0027778512 -0.01 -0.004157348
        vertex -0.0027778512 -0.005 -0.004157348
    endloop
endfacet
facet normal 0.67155915 0 0.74095094
    outer loop
        vertex -0.0035355338 -0.005 -0.0035355338
        vertex -0.0035355338 -0.01 -0.0035355338
        vertex -0.0031719664 -0.01 -0.0038650522
    endloop
endfacet
facet normal 0.80320746 0 0.59569937
    outer loop
        vertex -0.0038650522 -0.005 -0.0031719664
        vertex -0.004157348 -0.005 -0.0027778512
        vertex -0.0038650522 -0.01 -0.0031719664
    endloop
endfacet
facet normal 0.85772836 0 0.5141031
    outer loop
        vertex -0.004157348 -0.01 -0.0027778512
        vertex -0.0044096066 -0.005 -0.0023569837
        vertex -0.0044096066 -0.01 -0.0023569837
    endloop
endfacet
facet normal 0.941544 -0 0.3368901
    outer loop
        vertex -0.0046193977 -0.01 -0.0019134172
        vertex -0.0046193977 -0.005 -0.0019134172
        vertex -0.004784702 -0.005 -0.0014514234
    endloop
endfacet
facet normal 0.9700313 -0 0.24298003
    outer loop
        vertex -0.0049039265 -0.01 -0.0009754516
        vertex -0.004784702 -0.01 -0.0014514234
        vertex -0.0049039265 -0.005 -0.0009754516
    endloop
endfacet
facet normal 0.99879545 0 0.049068052
    outer loop
        vertex -0.005 -0.005 0.0000000000000000006123234
        vertex -0.0049759233 -0.01 -0.0004900857
        vertex -0.0049759233 -0.005 -0.0004900857
    endloop
endfacet
facet normal 0.99879545 0 -0.049068052
    outer loop
        vertex -0.0049759233 -0.005 0.0004900857
        vertex -0.005 -0.01 0.0000000000000000006123234
        vertex -0.005 -0.005 0.0000000000000000006123234
    endloop
endfacet
facet normal 0.98917663 0 -0.14672966
    outer loop
        vertex -0.0049039265 -0.005 0.0009754516
        vertex -0.0049039265 -0.01 0.0009754516
        vertex -0.0049759233 -0.01 0.0004900857
    endloop
endfacet
facet normal 0.941544 0 -0.3368901
    outer loop
        vertex -0.004784702 -0.005 0.0014514234
        vertex -0.0046193977 -0.005 0.0019134172
        vertex -0.004784702 -0.01 0.0014514234
    endloop
endfacet
facet normal 0.90398943 0 -0.42755476
    outer loop
        vertex -0.0046193977 -0.01 0.0019134172
        vertex -0.0044096066 -0.005 0.0023569837
        vertex -0.0044096066 -0.01 0.0023569837
    endloop
endfacet
facet normal 0.80320746 0 -0.59569937
    outer loop
        vertex -0.004157348 -0.01 0.0027778512
        vertex -0.004157348 -0.005 0.0027778512
        vertex -0.0038650522 -0.005 0.0031719664
    endloop
endfacet
facet normal 0.74095094 0 -0.67155915
    outer loop
        vertex -0.0035355338 -0.01 0.0035355338
        vertex -0.0038650522 -0.01 0.0031719664
        vertex -0.0035355338 -0.005 0.0035355338
    endloop
endfacet
facet normal 0.59569937 0 -0.80320746
    outer loop
        vertex -0.0027778512 -0.005 0.004157348
        vertex -0.0031719664 -0.01 0.0038650522
        vertex -0.0031719664 -0.005 0.0038650522
    endloop
endfacet
facet normal 0.5141031 0 -0.85772836
    outer loop
        vertex -0.0023569837 -0.005 0.0044096066
        vertex -0.0023569837 -0.01 0.0044096066
        vertex -0.0027778512 -0.01 0.004157348
    endloop
endfacet
facet normal 0.3368901 0 -0.941544
    outer loop
        vertex -0.0019134172 -0.005 0.0046193977
        vertex -0.0014514234 -0.005 0.004784702
        vertex -0.0019134172 -0.01 0.0046193977
    endloop
endfacet
facet normal 0.24298003 0 -0.9700313
    outer loop
        vertex -0.0014514234 -0.01 0.004784702
        vertex -0.0009754516 -0.005 0.0049039265
        vertex -0.0009754516 -0.01 0.0049039265
    endloop
endfacet
facet normal 0.049068052 0 -0.99879545
    outer loop
        vertex -0.0004900857 -0.01 0.0049759233
        vertex -0.0004900857 -0.005 0.0049759233
        vertex 0.0000000000000000003061617 -0.005 0.005
    endloop
endfacet
facet normal -0.049068052 0 -0.99879545
    outer loop
        vertex 0.0004900857 -0.01 0.0049759233
        vertex 0.0000000000000000003061617 -0.01 0.005
        vertex 0.0004900857 -0.005 0.0049759233
    endloop
endfacet
facet normal -0.24298003 0 -0.9700313
    outer loop
        vertex 0.0014514234 -0.005 0.004784702
        vertex 0.0009754516 -0.01 0.0049039265
        vertex 0.0009754516 -0.005 0.0049039265
    endloop
endfacet
facet normal -0.3368901 -0 -0.941544
    outer loop
        vertex 0.0019134172 -0.005 0.0046193977
        vertex 0.0019134172 -0.01 0.0046193977
        vertex 0.0014514234 -0.01 0.004784702
    endloop
endfacet
facet normal -0.5141031 -0 -0.85772836
    outer loop
        vertex 0.0023569837 -0.005 0.0044096066
        vertex 0.0027778512 -0.005 0.004157348
        vertex 0.0023569837 -0.01 0.0044096066
    endloop
endfacet
facet normal -0.59569937 0 -0.80320746
    outer loop
        vertex 0.0027778512 -0.01 0.004157348
        vertex 0.0031719664 -0.005 0.0038650522
        vertex 0.0031719664 -0.01 0.0038650522
    endloop
endfacet
facet normal -0.74095094 0 -0.67155915
    outer loop
        vertex 0.0035355338 -0.01 0.0035355338
        vertex 0.0035355338 -0.005 0.0035355338
        vertex 0.0038650522 -0.005 0.0031719664
    endloop
endfacet
facet normal -0.80320746 0 -0.59569937
    outer loop
        vertex 0.004157348 -0.01 0.0027778512
        vertex 0.0038650522 -0.01 0.0031719664
        vertex 0.004157348 -0.005 0.0027778512
    endloop
endfacet
facet normal -0.90398943 0 -0.42755476
    outer loop
        vertex 0.0046193977 -0.005 0.0019134172
        vertex 0.0044096066 -0.01 0.0023569837
        vertex 0.0044096066 -0.005 0.0023569837
    endloop
endfacet
facet normal -0.941544 0 -0.3368901
    outer loop
        vertex 0.0046193977 -0.01 0.0019134172
        vertex 0.004784702 -0.005 0.0014514234
        vertex 0.004784702 -0.01 0.0014514234
    endloop
endfacet
facet normal -0.99879545 0 -0.049068052
    outer loop
        vertex 0.005 -0.01 0
        vertex 0.0049759233 -0.01 0.0004900857
        vertex 0.005 -0.005 0
    endloop
endfacet
facet normal -0.98917663 0 -0.14672966
    outer loop
        vertex 0.0049759233 -0.005 0.0004900857
        vertex 0.0049039265 -0.01 0.0009754516
        vertex 0.0049039265 -0.005 0.0009754516
    endloop
endfacet
facet normal -0.99879545 0 -0.049068052
    outer loop
        vertex 0.0049759233 -0.01 0.0004900857
        vertex 0.0049759233 -0.005 0.0004900857
        vertex 0.005 -0.005 0
    endloop
endfacet
facet normal 0 -1 0
    outer loop
        vertex 0.0049039265 -0.005 -0.0009754516
        vertex 0.0049759233 -0.005 -0.0004900857
        vertex 0.005 -0.005 0
    endloop
endfacet
facet normal 0 -1 0
    outer loop
        vertex 0.004784702 -0.005 -0.0014514234
        vertex 0.0049039265 -0.005 -0.0009754516
        vertex 0.005 -0.005 0
    endloop
endfacet
facet normal 0 -1 0
    outer loop
        vertex 0.0046193977 -0.005 -0.0019134172
        vertex 0.004784702 -0.005 -0.0014514234
        vertex 0.005 -0.005 0
    endloop
endfacet
facet normal 0 -1 0
    outer loop
        vertex 0.0044096066 -0.005 -0.0023569837
        vertex 0.0046193977 -0.005 -0.0019134172
        vertex 0.005 -0.005 0
    endloop
endfacet
facet normal 0 -1 0
    outer loop
        vertex 0.004157348 -0.005 -0.0027778512
        vertex 0.0044096066 -0.005 -0.0023569837
        vertex 0.005 -0.005 0
    endloop
endfacet
facet normal 0 -1 0
    outer loop
        vertex 0.0038650522 -0.005 -0.0031719664
        vertex 0.004157348 -0.005 -0.0027778512
        vertex 0.005 -0.005 0
    endloop
endfacet
facet normal 0 -1 0
    outer loop
        vertex 0.0035355338 -0.005 -0.0035355338
        vertex 0.0038650522 -0.005 -0.0031719664
        vertex 0.005 -0.005 0
    endloop
endfacet
facet normal 0 -0.99999994 0
    outer loop
        vertex 0.0031719664 -0.005 -0.0038650522
        vertex 0.0035355338 -0.005 -0.0035355338
        vertex 0.005 -0.005 0
    endloop
endfacet
facet normal 0 -1 0
    outer loop
        vertex 0.0027778512 -0.005 -0.004157348
        vertex 0.0031719664 -0.005 -0.0038650522
        vertex 0.005 -0.005 0
    endloop
endfacet
facet normal 0 -1 0
    outer loop
        vertex 0.0023569837 -0.005 -0.0044096066
        vertex 0.0027778512 -0.005 -0.004157348
        vertex 0.005 -0.005 0
    endloop
endfacet
facet normal 0 -1 0
    outer loop
        vertex 0.0019134172 -0.005 -0.0046193977
        vertex 0.0023569837 -0.005 -0.0044096066
        vertex 0.005 -0.005 0
    endloop
endfacet
facet normal -0 -0.99999994 0
    outer loop
        vertex 0.0014514234 -0.005 -0.004784702
        vertex 0.005 -0.005 0
        vertex 0.0009754516 -0.005 -0.0049039265
    endloop
endfacet
facet normal 0 -0.99999994 0
    outer loop
        vertex 0.0014514234 -0.005 -0.004784702
        vertex 0.0019134172 -0.005 -0.0046193977
        vertex 0.005 -0.005 0
    endloop
endfacet
facet normal -0 -1 0
    outer loop
        vertex 0.0009754516 -0.005 -0.0049039265
        vertex 0.005 -0.005 0
        vertex 0.0004900857 -0.005 -0.0049759233
    endloop
endfacet
facet normal -0 -1 0
    outer loop
        vertex 0.0004900857 -0.005 -0.0049759233
        vertex 0.005 -0.005 0
        vertex -0.000000000000000000918485 -0.005 -0.005
    endloop
endfacet
facet normal 0 -1 0
    outer loop
        vertex -0.000000000000000000918485 -0.005 -0.005
        vertex 0.005 -0.005 0
        vertex -0.0004900857 -0.005 -0.0049759233
    endloop
endfacet
facet normal 0 -1 0
    outer loop
        vertex -0.0004900857 -0.005 -0.0049759233
        vertex 0.005 -0.005 0
        vertex -0.0009754516 -0.005 -0.0049039265
    endloop
endfacet
facet normal 0 -1 0
    outer loop
        vertex 0.005 -0.005 0
        vertex -0.0014514234 -0.005 -0.004784702
        vertex -0.0009754516 -0.005 -0.0049039265
    endloop
endfacet
facet normal 0 -1 0
    outer loop
        vertex 0.005 -0.005 0
        vertex -0.0019134172 -0.005 -0.0046193977
        vertex -0.0014514234 -0.005 -0.004784702
    endloop
endfacet
facet normal 0 -1 0
    outer loop
        vertex 0.005 -0.005 0
        vertex -0.0023569837 -0.005 -0.0044096066
        vertex -0.0019134172 -0.005 -0.0046193977
    endloop
endfacet
facet normal 0 -0.99999994 0
    outer loop
        vertex 0.005 -0.005 0
        vertex -0.0027778512 -0.005 -0.004157348
        vertex -0.0023569837 -0.005 -0.0044096066
    endloop
endfacet
facet normal 0 -1 0
    outer loop
        vertex 0.005 -0.005 0
        vertex -0.0031719664 -0.005 -0.0038650522
        vertex -0.0027778512 -0.005 -0.004157348
    endloop
endfacet
facet normal 0 -0.99999994 0
    outer loop
        vertex 0.005 -0.005 0
        vertex -0.0035355338 -0.005 -0.0035355338
        vertex -0.0031719664 -0.005 -0.0038650522
    endloop
endfacet
facet normal 0 -1 0
    outer loop
        vertex 0.005 -0.005 0
        vertex -0.0038650522 -0.005 -0.0031719664
        vertex -0.0035355338 -0.005 -0.0035355338
    endloop
endfacet
facet normal 0 -1 0
    outer loop
        vertex 0.005 -0.005 0
        vertex -0.004157348 -0.005 -0.0027778512
        vertex -0.0038650522 -0.005 -0.0031719664
    endloop
endfacet
facet normal 0 -1 0
    outer loop
        vertex -0.0046193977 -0.005 -0.0019134172
        vertex -0.0044096066 -0.005 -0.0023569837
        vertex 0.005 -0.005 0
    endloop
endfacet
facet normal 0 -1 0
    outer loop
        vertex 0.005 -0.005 0
        vertex -0.0044096066 -0.005 -0.0023569837
        vertex -0.004157348 -0.005 -0.0027778512
    endloop
endfacet
facet normal 0 -1 0
    outer loop
        vertex -0.004784702 -0.005 -0.0014514234
        vertex -0.0046193977 -0.005 -0.0019134172
        vertex 0.005 -0.005 0
    endloop
endfacet
facet normal 0 -1 0
    outer loop
        vertex -0.0049039265 -0.005 -0.0009754516
        vertex -0.004784702 -0.005 -0.0014514234
        vertex 0.005 -0.005 0
    endloop
endfacet
facet normal 0 -1 0
    outer loop
        vertex -0.0049759233 -0.005 -0.0004900857
        vertex 0.005 -0.005 0
        vertex -0.005 -0.005 0.0000000000000000006123234
    endloop
endfacet
facet normal 0 -1 0
    outer loop
        vertex -0.005 -0.005 0.0000000000000000006123234
        vertex 0.005 -0.005 0
        vertex -0.0049759233 -0.005 0.0004900857
    endloop
endfacet
facet normal 0 -1 0
    outer loop
        vertex -0.0049759233 -0.005 0.0004900857
        vertex 0.005 -0.005 0
        vertex -0.0049039265 -0.005 0.0009754516
    endloop
endfacet
facet normal 0 -1 0
    outer loop
        vertex 0.005 -0.005 0
        vertex -0.004784702 -0.005 0.0014514234
        vertex -0.0049039265 -0.005 0.0009754516
    endloop
endfacet
facet normal 0 -1 0
    outer loop
        vertex 0.005 -0.005 0
        vertex -0.0046193977 -0.005 0.0019134172
        vertex -0.004784702 -0.005 0.0014514234
    endloop
endfacet
facet normal 0 -1 0
    outer loop
        vertex 0.005 -0.005 0
        vertex -0.0044096066 -0.005 0.0023569837
        vertex -0.0046193977 -0.005 0.0019134172
    endloop
endfacet
facet normal 0 -1 0
    outer loop
        vertex 0.005 -0.005 0
        vertex -0.004157348 -0.005 0.0027778512
        vertex -0.0044096066 -0.005 0.0023569837
    endloop
endfacet
facet normal 0 -1 0
    outer loop
        vertex 0.005 -0.005 0
        vertex -0.0038650522 -0.005 0.0031719664
        vertex -0.004157348 -0.005 0.0027778512
    endloop
endfacet
facet normal 0 -1 0
    outer loop
        vertex 0.005 -0.005 0
        vertex -0.0035355338 -0.005 0.0035355338
        vertex -0.0038650522 -0.005 0.0031719664
    endloop
endfacet
facet normal 0 -0.99999994 0
    outer loop
        vertex 0.005 -0.005 0
        vertex -0.0031719664 -0.005 0.0038650522
        vertex -0.0035355338 -0.005 0.0035355338
    endloop
endfacet
facet normal 0 -1 0
    outer loop
        vertex 0.005 -0.005 0
        vertex -0.0027778512 -0.005 0.004157348
        vertex -0.0031719664 -0.005 0.0038650522
    endloop
endfacet
facet normal 0 -1 -0
    outer loop
        vertex -0.0019134172 -0.005 0.0046193977
        vertex -0.0023569837 -0.005 0.0044096066
        vertex 0.005 -0.005 0
    endloop
endfacet
facet normal 0 -0.99999994 0
    outer loop
        vertex 0.005 -0.005 0
        vertex -0.0023569837 -0.005 0.0044096066
        vertex -0.0027778512 -0.005 0.004157348
    endloop
endfacet
facet normal 0 -0.99999994 -0
    outer loop
        vertex -0.0014514234 -0.005 0.004784702
        vertex -0.0019134172 -0.005 0.0046193977
        vertex 0.005 -0.005 0
    endloop
endfacet
facet normal 0 -1 -0
    outer loop
        vertex -0.0009754516 -0.005 0.0049039265
        vertex -0.0014514234 -0.005 0.004784702
        vertex 0.005 -0.005 0
    endloop
endfacet
facet normal 0 -1 -0
    outer loop
        vertex -0.0004900857 -0.005 0.0049759233
        vertex -0.0009754516 -0.005 0.0049039265
        vertex 0.005 -0.005 0
    endloop
endfacet
facet normal 0 -1 -0
    outer loop
        vertex 0.0000000000000000003061617 -0.005 0.005
        vertex -0.0004900857 -0.005 0.0049759233
        vertex 0.005 -0.005 0
    endloop
endfacet
facet normal -0 -1 -0
    outer loop
        vertex 0.0004900857 -0.005 0.0049759233
        vertex 0.0000000000000000003061617 -0.005 0.005
        vertex 0.005 -0.005 0
    endloop
endfacet
facet normal 0 -1 0
    outer loop
        vertex 0.0004900857 -0.005 0.0049759233
        vertex 0.005 -0.005 0
        vertex 0.0009754516 -0.005 0.0049039265
    endloop
endfacet
facet normal 0 -1 0
    outer loop
        vertex 0.0009754516 -0.005 0.0049039265
        vertex 0.005 -0.005 0
        vertex 0.0014514234 -0.005 0.004784702
    endloop
endfacet
facet normal 0 -0.99999994 0
    outer loop
        vertex 0.0014514234 -0.005 0.004784702
        vertex 0.005 -0.005 0
        vertex 0.0019134172 -0.005 0.0046193977
    endloop
endfacet
facet normal 0 -1 0
    outer loop
        vertex 0.0019134172 -0.005 0.0046193977
        vertex 0.005 -0.005 0
        vertex 0.0023569837 -0.005 0.0044096066
    endloop
endfacet
facet normal 0 -1 0
    outer loop
        vertex 0.0023569837 -0.005 0.0044096066
        vertex 0.005 -0.005 0
        vertex 0.0027778512 -0.005 0.004157348
    endloop
endfacet
facet normal 0 -1 0
    outer loop
        vertex 0.0027778512 -0.005 0.004157348
        vertex 0.005 -0.005 0
        vertex 0.0031719664 -0.005 0.0038650522
    endloop
endfacet
facet normal 0 -0.99999994 0
    outer loop
        vertex 0.0031719664 -0.005 0.0038650522
        vertex 0.005 -0.005 0
        vertex 0.0035355338 -0.005 0.0035355338
    endloop
endfacet
facet normal 0 -1 0
    outer loop
        vertex 0.0035355338 -0.005 0.0035355338
        vertex 0.005 -0.005 0
        vertex 0.0038650522 -0.005 0.0031719664
    endloop
endfacet
facet normal 0 -1 0
    outer loop
        vertex 0.005 -0.005 0
        vertex 0.0044096066 -0.005 0.0023569837
        vertex 0.004157348 -0.005 0.0027778512
    endloop
endfacet
facet normal 0 -1 0
    outer loop
        vertex 0.0038650522 -0.005 0.0031719664
        vertex 0.005 -0.005 0
        vertex 0.004157348 -0.005 0.0027778512
    endloop
endfacet
facet normal 0 -1 0
    outer loop
        vertex 0.005 -0.005 0
        vertex 0.0046193977 -0.005 0.0019134172
        vertex 0.0044096066 -0.005 0.0023569837
    endloop
endfacet
facet normal 0 -1 0
    outer loop
        vertex 0.005 -0.005 0
        vertex 0.004784702 -0.005 0.0014514234
        vertex 0.0046193977 -0.005 0.0019134172
    endloop
endfacet
facet normal 0 -1 0
    outer loop
        vertex 0.005 -0.005 0
        vertex 0.0049039265 -0.005 0.0009754516
        vertex 0.004784702 -0.005 0.0014514234
    endloop
endfacet
facet normal 0 -1 0
    outer loop
        vertex 0.005 -0.005 0
        vertex 0.0049759233 -0.005 0.0004900857
        vertex 0.0049039265 -0.005 0.0009754516
    endloop
endfacet
facet normal 0 -1 0
    outer loop
        vertex -0.0049759233 -0.005 -0.0004900857
        vertex -0.0049039265 -0.005 -0.0009754516
        vertex 0.005 -0.005 0
    endloop
endfacet
endsolid unnamed
