<svg xmlns="http://www.w3.org/2000/svg" xmlns:xlink="http://www.w3.org/1999/xlink" xmlns:lucid="lucid" width="2057" height="1293"><g transform="translate(5656 -114)" lucid:page-tab-id="0_0"><path d="M-5500 182.06h1610.88v240.17H-5500z" fill="none"/><use xlink:href="#a" transform="matrix(1,0,0,1,-5500,182.0609602494078) translate(30.185185185185446 129.83333333333331)"/><use xlink:href="#b" transform="matrix(1,0,0,1,-5500,182.0609602494078) translate(105.11111111111134 129.83333333333331)"/><use xlink:href="#c" transform="matrix(1,0,0,1,-5500,182.0609602494078) translate(304.6111111111113 129.83333333333331)"/><use xlink:href="#d" transform="matrix(1,0,0,1,-5500,182.0609602494078) translate(361.3888888888891 129.83333333333331)"/><use xlink:href="#e" transform="matrix(1,0,0,1,-5500,182.0609602494078) translate(406.24074074074093 129.83333333333331)"/><use xlink:href="#f" transform="matrix(1,0,0,1,-5500,182.0609602494078) translate(545.9814814814816 129.83333333333331)"/><use xlink:href="#g" transform="matrix(1,0,0,1,-5500,182.0609602494078) translate(693.3703703703704 129.83333333333331)"/><use xlink:href="#h" transform="matrix(1,0,0,1,-5500,182.0609602494078) translate(835.5740740740741 129.83333333333331)"/><use xlink:href="#i" transform="matrix(1,0,0,1,-5500,182.0609602494078) translate(1008.8888888888889 129.83333333333331)"/><use xlink:href="#j" transform="matrix(1,0,0,1,-5500,182.0609602494078) translate(1107.0185185185185 129.83333333333331)"/><use xlink:href="#k" transform="matrix(1,0,0,1,-5500,182.0609602494078) translate(1145.9074074074074 129.83333333333331)"/><use xlink:href="#l" transform="matrix(1,0,0,1,-5500,182.0609602494078) translate(1327.3888888888887 129.83333333333331)"/><path d="M-5496.13 447.2a6 6 0 0 1 6-6H-3746a6 6 0 0 1 6 6v428.05a6 6 0 0 1-6 6h-1744.13a6 6 0 0 1-6-6z" stroke="#cfe4ff" stroke-width="10" fill="#edf5ff"/><use xlink:href="#m" transform="matrix(1,0,0,1,-5491.134030076058,446.21152263862314) translate(703.7777777777779 120.30034722222217)"/><use xlink:href="#n" transform="matrix(1,0,0,1,-5491.134030076058,446.21152263862314) translate(876.7901234567901 120.30034722222217)"/><use xlink:href="#o" transform="matrix(1,0,0,1,-5491.134030076058,446.21152263862314) translate(873.5 189.63368055555543)"/><use xlink:href="#o" transform="matrix(1,0,0,1,-5491.134030076058,446.21152263862314) translate(873.5 258.9670138888887)"/><use xlink:href="#p" transform="matrix(1,0,0,1,-5491.134030076058,446.21152263862314) translate(873.5 328.30034722222194)"/><path d="M-5440 657.24a6 6 0 0 1 6-6h440.12a6 6 0 0 1 6 6v148a6 6 0 0 1-6 6H-5434a6 6 0 0 1-6-6z" stroke="#ffd9d9" stroke-width="10" fill="#fff0f0"/><use xlink:href="#q" transform="matrix(1,0,0,1,-5435,656.2429990559613) translate(120.46913580246925 88.40972222222217)"/><use xlink:href="#r" transform="matrix(1,0,0,1,-5435,656.2429990559613) translate(290.432098765432 88.40972222222217)"/><path d="M-4844.13 657.24a6 6 0 0 1 6-6H-4398a6 6 0 0 1 6 6v148a6 6 0 0 1-6 6h-440.13a6 6 0 0 1-6-6z" stroke="#c3f7c8" stroke-width="10" fill="#e3fae3"/><g><use xlink:href="#q" transform="matrix(1,0,0,1,-4839.125786527977,656.2429990559613) translate(120.46913580246925 88.40972222222217)"/><use xlink:href="#s" transform="matrix(1,0,0,1,-4839.125786527977,656.2429990559613) translate(290.432098765432 88.40972222222217)"/></g><path d="M-4240 657.24a6 6 0 0 1 6-6h440.12a6 6 0 0 1 6 6v148a6 6 0 0 1-6 6H-4234a6 6 0 0 1-6-6z" stroke="#f4d9ff" stroke-width="10" fill="#fbf0ff"/><g><use xlink:href="#q" transform="matrix(1,0,0,1,-4235,656.2429990559613) translate(120.46913580246925 88.40972222222217)"/><use xlink:href="#t" transform="matrix(1,0,0,1,-4235,656.2429990559613) translate(290.432098765432 88.40972222222217)"/></g><path d="M-5440 1026a6 6 0 0 1 6-6h440.12a6 6 0 0 1 6 6v148a6 6 0 0 1-6 6H-5434a6 6 0 0 1-6-6z" stroke="#ffd9d9" stroke-width="10" fill="#fff0f0"/><g><use xlink:href="#q" transform="matrix(1,0,0,1,-5435,1025) translate(120.46913580246925 88.40972222222217)"/><use xlink:href="#r" transform="matrix(1,0,0,1,-5435,1025) translate(290.432098765432 88.40972222222217)"/></g><path d="M-4844.13 1026a6 6 0 0 1 6-6H-4398a6 6 0 0 1 6 6v148a6 6 0 0 1-6 6h-440.13a6 6 0 0 1-6-6z" stroke="#c3f7c8" stroke-width="10" fill="#e3fae3"/><g><use xlink:href="#q" transform="matrix(1,0,0,1,-4839.125786527977,1025) translate(120.46913580246925 88.40972222222217)"/><use xlink:href="#s" transform="matrix(1,0,0,1,-4839.125786527977,1025) translate(290.432098765432 88.40972222222217)"/></g><path d="M-4240 1026a6 6 0 0 1 6-6h440.12a6 6 0 0 1 6 6v148a6 6 0 0 1-6 6H-4234a6 6 0 0 1-6-6z" stroke="#f4d9ff" stroke-width="10" fill="#fbf0ff"/><g><use xlink:href="#q" transform="matrix(1,0,0,1,-4235,1025) translate(120.46913580246925 88.40972222222217)"/><use xlink:href="#t" transform="matrix(1,0,0,1,-4235,1025) translate(290.432098765432 88.40972222222217)"/></g><path d="M-4980.38 1100h106.4" stroke="#3a414a" stroke-width="5" fill="none"/><path d="M-4980.32 1102.5h-2.56v-5h2.56z" stroke="#3a414a" stroke-width=".05" fill="#3a414a"/><path d="M-4857.22 1100l-14.26 4.63v-9.27z" stroke="#3a414a" stroke-width="5" fill="#3a414a"/><path d="M-4384.5 1100h114.64" stroke="#3a414a" stroke-width="5" fill="none"/><path d="M-4384.44 1102.5h-2.57v-5h2.56z" stroke="#3a414a" stroke-width=".05" fill="#3a414a"/><path d="M-4253.1 1100l-14.26 4.63v-9.27z" stroke="#3a414a" stroke-width="5" fill="#3a414a"/><defs><path fill="#333" d="M199 0l-22-63H83L61 0H9l90-248h61L250 0h-51zm-33-102l-36-108c-10 38-24 72-36 108h72" id="u"/><path fill="#333" d="M135-194c87-1 58 113 63 194h-50c-7-57 23-157-34-157-59 0-34 97-39 157H25l-1-190h47c2 12-1 28 3 38 12-26 28-41 61-42" id="v"/><g id="a"><use transform="matrix(0.12962962962962957,0,0,0.12962962962962957,0,0)" xlink:href="#u"/><use transform="matrix(0.12962962962962957,0,0,0.12962962962962957,33.574074074074055,0)" xlink:href="#v"/></g><path fill="#333" d="M185-48c-13 30-37 53-82 52C43 2 14-33 14-96s30-98 90-98c62 0 83 45 84 108H66c0 31 8 55 39 56 18 0 30-7 34-22zm-45-69c5-46-57-63-70-21-2 6-4 13-4 21h74" id="w"/><path fill="#333" d="M144 0l-44-69L55 0H2l70-98-66-92h53l41 62 40-62h54l-67 91 71 99h-54" id="x"/><path fill="#333" d="M133-34C117-15 103 5 69 4 32 3 11-16 11-54c-1-60 55-63 116-61 1-26-3-47-28-47-18 1-26 9-28 27l-52-2c7-38 36-58 82-57s74 22 75 68l1 82c-1 14 12 18 25 15v27c-30 8-71 5-69-32zm-48 3c29 0 43-24 42-57-32 0-66-3-65 30 0 17 8 27 23 27" id="y"/><path fill="#333" d="M220-157c-53 9-28 100-34 157h-49v-107c1-27-5-49-29-50C55-147 81-57 75 0H25l-1-190h47c2 12-1 28 3 38 10-53 101-56 108 0 13-22 24-43 59-42 82 1 51 116 57 194h-49v-107c-1-25-5-48-29-50" id="z"/><path fill="#333" d="M135-194c53 0 70 44 70 98 0 56-19 98-73 100-31 1-45-17-59-34 3 33 2 69 2 105H25l-1-265h48c2 10 0 23 3 31 11-24 29-35 60-35zM114-30c33 0 39-31 40-66 0-38-9-64-40-64-56 0-55 130 0 130" id="A"/><path fill="#333" d="M25 0v-261h50V0H25" id="B"/><g id="b"><use transform="matrix(0.12962962962962957,0,0,0.12962962962962957,0,0)" xlink:href="#w"/><use transform="matrix(0.12962962962962957,0,0,0.12962962962962957,25.925925925925913,0)" xlink:href="#x"/><use transform="matrix(0.12962962962962957,0,0,0.12962962962962957,51.851851851851826,0)" xlink:href="#y"/><use transform="matrix(0.12962962962962957,0,0,0.12962962962962957,77.77777777777774,0)" xlink:href="#z"/><use transform="matrix(0.12962962962962957,0,0,0.12962962962962957,119.25925925925921,0)" xlink:href="#A"/><use transform="matrix(0.12962962962962957,0,0,0.12962962962962957,147.6481481481481,0)" xlink:href="#B"/><use transform="matrix(0.12962962962962957,0,0,0.12962962962962957,160.61111111111106,0)" xlink:href="#w"/></g><path fill="#333" d="M110-194c64 0 96 36 96 99 0 64-35 99-97 99-61 0-95-36-95-99 0-62 34-99 96-99zm-1 164c35 0 45-28 45-65 0-40-10-65-43-65-34 0-45 26-45 65 0 36 10 65 43 65" id="C"/><path fill="#333" d="M121-226c-27-7-43 5-38 36h38v33H83V0H34v-157H6v-33h28c-9-59 32-81 87-68v32" id="D"/><g id="c"><use transform="matrix(0.12962962962962957,0,0,0.12962962962962957,0,0)" xlink:href="#C"/><use transform="matrix(0.12962962962962957,0,0,0.12962962962962957,28.388888888888875,0)" xlink:href="#D"/></g><use transform="matrix(0.12962962962962957,0,0,0.12962962962962957,0,0)" xlink:href="#u" id="d"/><path fill="#333" d="M24 0v-248h52v208h133V0H24" id="E"/><path fill="#333" d="M135-150c-39-12-60 13-60 57V0H25l-1-190h47c2 13-1 29 3 40 6-28 27-53 61-41v41" id="F"/><path fill="#333" d="M195-6C206 82 75 100 31 46c-4-6-6-13-8-21l49-6c3 16 16 24 34 25 40 0 42-37 40-79-11 22-30 35-61 35-53 0-70-43-70-97 0-56 18-96 73-97 30 0 46 14 59 34l2-30h47zm-90-29c32 0 41-27 41-63 0-35-9-62-40-62-32 0-39 29-40 63 0 36 9 62 39 62" id="G"/><g id="e"><use transform="matrix(0.12962962962962957,0,0,0.12962962962962957,0,0)" xlink:href="#E"/><use transform="matrix(0.12962962962962957,0,0,0.12962962962962957,28.388888888888875,0)" xlink:href="#y"/><use transform="matrix(0.12962962962962957,0,0,0.12962962962962957,54.31481481481479,0)" xlink:href="#F"/><use transform="matrix(0.12962962962962957,0,0,0.12962962962962957,72.46296296296293,0)" xlink:href="#G"/><use transform="matrix(0.12962962962962957,0,0,0.12962962962962957,100.8518518518518,0)" xlink:href="#w"/></g><path fill="#333" d="M230 0l2-204L168 0h-37L68-204 70 0H24v-248h70l56 185 57-185h69V0h-46" id="H"/><path fill="#333" d="M88-194c31-1 46 15 58 34l-1-101h50l1 261h-48c-2-10 0-23-3-31C134-8 116 4 84 4 32 4 16-41 15-95c0-56 19-97 73-99zm17 164c33 0 40-30 41-66 1-37-9-64-41-64s-38 30-39 65c0 43 13 65 39 65" id="I"/><g id="f"><use transform="matrix(0.12962962962962957,0,0,0.12962962962962957,0,0)" xlink:href="#H"/><use transform="matrix(0.12962962962962957,0,0,0.12962962962962957,38.75925925925924,0)" xlink:href="#C"/><use transform="matrix(0.12962962962962957,0,0,0.12962962962962957,67.14814814814811,0)" xlink:href="#I"/><use transform="matrix(0.12962962962962957,0,0,0.12962962962962957,95.53703703703698,0)" xlink:href="#w"/><use transform="matrix(0.12962962962962957,0,0,0.12962962962962957,121.46296296296289,0)" xlink:href="#B"/></g><path fill="#333" d="M182-130c37 4 62 22 62 59C244 23 116-4 24 0v-248c84 5 203-23 205 63 0 31-19 50-47 55zM76-148c40-3 101 13 101-30 0-44-60-28-101-31v61zm0 110c48-3 116 14 116-37 0-48-69-32-116-35v72" id="J"/><path fill="#333" d="M25-224v-37h50v37H25zM25 0v-190h50V0H25" id="K"/><g id="g"><use transform="matrix(0.12962962962962957,0,0,0.12962962962962957,0,0)" xlink:href="#J"/><use transform="matrix(0.12962962962962957,0,0,0.12962962962962957,33.574074074074055,0)" xlink:href="#w"/><use transform="matrix(0.12962962962962957,0,0,0.12962962962962957,59.49999999999997,0)" xlink:href="#K"/><use transform="matrix(0.12962962962962957,0,0,0.12962962962962957,72.46296296296293,0)" xlink:href="#v"/><use transform="matrix(0.12962962962962957,0,0,0.12962962962962957,100.8518518518518,0)" xlink:href="#G"/></g><path fill="#333" d="M147 0L96-86 75-71V0H25v-261h50v150l67-79h53l-66 74L201 0h-54" id="L"/><g id="h"><use transform="matrix(0.12962962962962957,0,0,0.12962962962962957,0,0)" xlink:href="#J"/><use transform="matrix(0.12962962962962957,0,0,0.12962962962962957,33.574074074074055,0)" xlink:href="#F"/><use transform="matrix(0.12962962962962957,0,0,0.12962962962962957,51.72222222222219,0)" xlink:href="#C"/><use transform="matrix(0.12962962962962957,0,0,0.12962962962962957,80.11111111111107,0)" xlink:href="#L"/><use transform="matrix(0.12962962962962957,0,0,0.12962962962962957,106.03703703703698,0)" xlink:href="#w"/><use transform="matrix(0.12962962962962957,0,0,0.12962962962962957,131.9629629629629,0)" xlink:href="#v"/></g><path fill="#333" d="M115-3C79 11 28 4 28-45v-112H4v-33h27l15-45h31v45h36v33H77v99c-1 23 16 31 38 25v30" id="M"/><g id="i"><use transform="matrix(0.12962962962962957,0,0,0.12962962962962957,0,0)" xlink:href="#K"/><use transform="matrix(0.12962962962962957,0,0,0.12962962962962957,12.962962962962957,0)" xlink:href="#v"/><use transform="matrix(0.12962962962962957,0,0,0.12962962962962957,41.35185185185183,0)" xlink:href="#M"/><use transform="matrix(0.12962962962962957,0,0,0.12962962962962957,56.77777777777775,0)" xlink:href="#C"/></g><path fill="#333" d="M128-127c34 4 56 21 59 58 7 91-148 94-172 28-4-9-6-17-7-26l51-5c1 24 16 35 40 36 23 0 39-12 38-36-1-31-31-36-65-34v-40c32 2 59-3 59-33 0-20-13-33-34-33s-33 13-35 32l-50-3c6-44 37-68 86-68 50 0 83 20 83 66 0 35-22 52-53 58" id="N"/><use transform="matrix(0.12962962962962957,0,0,0.12962962962962957,0,0)" xlink:href="#N" id="j"/><path fill="#333" d="M169-182c-1-43-94-46-97-3 18 66 151 10 154 114 3 95-165 93-204 36-6-8-10-19-12-30l50-8c3 46 112 56 116 5-17-69-150-10-154-114-4-87 153-88 188-35 5 8 8 18 10 28" id="O"/><g id="k"><use transform="matrix(0.12962962962962957,0,0,0.12962962962962957,0,0)" xlink:href="#O"/><use transform="matrix(0.12962962962962957,0,0,0.12962962962962957,31.111111111111097,0)" xlink:href="#z"/><use transform="matrix(0.12962962962962957,0,0,0.12962962962962957,72.59259259259255,0)" xlink:href="#y"/><use transform="matrix(0.12962962962962957,0,0,0.12962962962962957,98.51851851851846,0)" xlink:href="#B"/><use transform="matrix(0.12962962962962957,0,0,0.12962962962962957,111.48148148148142,0)" xlink:href="#B"/><use transform="matrix(0.12962962962962957,0,0,0.12962962962962957,124.44444444444439,0)" xlink:href="#w"/><use transform="matrix(0.12962962962962957,0,0,0.12962962962962957,150.3703703703703,0)" xlink:href="#F"/></g><path fill="#333" d="M85 4C-2 5 27-109 22-190h50c7 57-23 150 33 157 60-5 35-97 40-157h50l1 190h-47c-2-12 1-28-3-38-12 25-28 42-61 42" id="P"/><path fill="#333" d="M135-194c52 0 70 43 70 98 0 56-19 99-73 100-30 1-46-15-58-35L72 0H24l1-261h50v104c11-23 29-37 60-37zM114-30c31 0 40-27 40-66 0-37-7-63-39-63s-41 28-41 65c0 36 8 64 40 64" id="Q"/><path fill="#333" d="M137-138c1-29-70-34-71-4 15 46 118 7 119 86 1 83-164 76-172 9l43-7c4 19 20 25 44 25 33 8 57-30 24-41C81-84 22-81 20-136c-2-80 154-74 161-7" id="R"/><g id="l"><use transform="matrix(0.12962962962962957,0,0,0.12962962962962957,0,0)" xlink:href="#O"/><use transform="matrix(0.12962962962962957,0,0,0.12962962962962957,31.111111111111097,0)" xlink:href="#P"/><use transform="matrix(0.12962962962962957,0,0,0.12962962962962957,59.49999999999997,0)" xlink:href="#Q"/><use transform="matrix(0.12962962962962957,0,0,0.12962962962962957,87.88888888888884,0)" xlink:href="#z"/><use transform="matrix(0.12962962962962957,0,0,0.12962962962962957,129.3703703703703,0)" xlink:href="#C"/><use transform="matrix(0.12962962962962957,0,0,0.12962962962962957,157.75925925925918,0)" xlink:href="#I"/><use transform="matrix(0.12962962962962957,0,0,0.12962962962962957,186.14814814814807,0)" xlink:href="#P"/><use transform="matrix(0.12962962962962957,0,0,0.12962962962962957,214.53703703703695,0)" xlink:href="#B"/><use transform="matrix(0.12962962962962957,0,0,0.12962962962962957,227.49999999999991,0)" xlink:href="#R"/></g><g id="m"><use transform="matrix(0.16049382716049365,0,0,0.16049382716049365,0,0)" xlink:href="#E"/><use transform="matrix(0.16049382716049365,0,0,0.16049382716049365,35.14814814814811,0)" xlink:href="#y"/><use transform="matrix(0.16049382716049365,0,0,0.16049382716049365,67.24691358024684,0)" xlink:href="#F"/><use transform="matrix(0.16049382716049365,0,0,0.16049382716049365,89.71604938271595,0)" xlink:href="#G"/><use transform="matrix(0.16049382716049365,0,0,0.16049382716049365,124.86419753086406,0)" xlink:href="#w"/></g><g id="n"><use transform="matrix(0.16049382716049365,0,0,0.16049382716049365,0,0)" xlink:href="#H"/><use transform="matrix(0.16049382716049365,0,0,0.16049382716049365,47.9876543209876,0)" xlink:href="#C"/><use transform="matrix(0.16049382716049365,0,0,0.16049382716049365,83.13580246913571,0)" xlink:href="#I"/><use transform="matrix(0.16049382716049365,0,0,0.16049382716049365,118.28395061728382,0)" xlink:href="#w"/><use transform="matrix(0.16049382716049365,0,0,0.16049382716049365,150.38271604938257,0)" xlink:href="#B"/></g><path fill="#333" d="M123 10C108 53 80 86 19 72V37c35 8 53-11 59-39L3-190h52l48 148c12-52 28-100 44-148h51" id="S"/><g id="q"><use transform="matrix(0.16049382716049365,0,0,0.16049382716049365,0,0)" xlink:href="#E"/><use transform="matrix(0.16049382716049365,0,0,0.16049382716049365,35.14814814814811,0)" xlink:href="#y"/><use transform="matrix(0.16049382716049365,0,0,0.16049382716049365,67.24691358024684,0)" xlink:href="#S"/><use transform="matrix(0.16049382716049365,0,0,0.16049382716049365,99.34567901234557,0)" xlink:href="#w"/><use transform="matrix(0.16049382716049365,0,0,0.16049382716049365,131.4444444444443,0)" xlink:href="#F"/></g><path fill="#333" d="M23 0v-37h61v-169l-59 37v-38l62-41h46v211h57V0H23" id="T"/><use transform="matrix(0.16049382716049365,0,0,0.16049382716049365,0,0)" xlink:href="#T" id="r"/><path fill="#333" d="M182-182c0 78-84 86-111 141h115V0H12c-6-101 99-100 120-180 1-22-12-31-33-32-23 0-32 14-35 34l-49-3c5-45 32-70 84-70 51 0 83 22 83 69" id="U"/><use transform="matrix(0.16049382716049365,0,0,0.16049382716049365,0,0)" xlink:href="#U" id="s"/><use transform="matrix(0.16049382716049365,0,0,0.16049382716049365,0,0)" xlink:href="#N" id="t"/></defs></g></svg>