<svg xmlns="http://www.w3.org/2000/svg" xmlns:lucid="lucid" width="491" height="582"><g lucid:page-tab-id="0_0"><path d="M254.2 141.64a10.35 10.35 0 0 1 5.02-9.1l58.03-34.97a10.4 10.4 0 0 1 10.4-.2l59.57 32.78a10.4 10.4 0 0 1 5.4 8.9l1.5 67.73a10.35 10.35 0 0 1-5 9.1l-58.04 34.97a10.4 10.4 0 0 1-10.4.2l-59.57-32.78a10.4 10.4 0 0 1-5.38-8.9z" stroke="#000" stroke-width="3" fill="#ffd6f5"/><path d="M255.6 136.02l69.27 31.76M255.6 136.03l-.47-.22M324.86 167.78l.47.2M325 253.3v-85.44" stroke="#000" fill="none"/><path d="M325.5 253.83l-.8-.03-.2-.03v-.47h1z" stroke="#000" stroke-width=".05"/><path d="M325 167.87v-.5M391.95 133.33l-66.92 34.62" stroke="#000" fill="none"/><path d="M392.4 133.1l.23.44-.46.24-.46-.9.4-.2z" stroke="#000" stroke-width=".05"/><path d="M325.05 167.95l-.46.23" stroke="#000" fill="none"/><path d="M115.4 141.63a10.35 10.35 0 0 1 5.02-9.1l58.03-34.96a10.4 10.4 0 0 1 10.4-.2l59.57 32.78a10.4 10.4 0 0 1 5.4 8.9l1.5 67.73a10.35 10.35 0 0 1-5 9.1l-58.04 34.97a10.4 10.4 0 0 1-10.4.2l-59.57-32.78a10.4 10.4 0 0 1-5.38-8.9z" stroke="#000" stroke-width="3" fill="#ff8f8f"/><path d="M47.5 262.64a10.35 10.35 0 0 1 5-9.1l58.04-34.97a10.4 10.4 0 0 1 10.4-.2l59.57 32.78a10.4 10.4 0 0 1 5.4 8.9l1.5 67.74a10.35 10.35 0 0 1-5 9.08l-58.03 34.97a10.4 10.4 0 0 1-10.4.2L54.4 339.28a10.4 10.4 0 0 1-5.4-8.9z" stroke="#000" stroke-width="3" fill="#fff7a1"/><path d="M119.2 381.3a10.35 10.35 0 0 1 5.02-9.1l58.03-34.97a10.4 10.4 0 0 1 10.4-.2l59.57 32.8a10.4 10.4 0 0 1 5.4 8.88l1.5 67.75a10.35 10.35 0 0 1-5 9.1l-58.04 34.96a10.4 10.4 0 0 1-10.4.22l-59.57-32.8a10.4 10.4 0 0 1-5.38-8.88z" stroke="#000" stroke-width="3" fill="#6db1ff"/><path d="M255.82 381.3a10.35 10.35 0 0 1 5-9.1l58.04-34.97a10.4 10.4 0 0 1 10.4-.2l59.57 32.8a10.4 10.4 0 0 1 5.4 8.88l1.5 67.75a10.35 10.35 0 0 1-5 9.1L332.7 490.5a10.4 10.4 0 0 1-10.4.22l-59.58-32.8a10.4 10.4 0 0 1-5.4-8.88z" stroke="#000" stroke-width="3" fill="#c3f7c8"/><path d="M185.14 263.28a10.35 10.35 0 0 1 4.83-9.2L247.3 218a10.4 10.4 0 0 1 10.4-.4l60.2 31.6a10.4 10.4 0 0 1 5.56 8.8l2.84 67.7a10.35 10.35 0 0 1-4.83 9.18l-57.33 36.1a10.4 10.4 0 0 1-10.4.4l-60.2-31.6a10.4 10.4 0 0 1-5.56-8.8z" stroke="#fff" stroke-width="3"/><path d="M529.32 260.03a10.35 10.35 0 0 1 5.16-9l58.62-34a10.4 10.4 0 0 1 10.4-.02l59 33.8a10.4 10.4 0 0 1 5.24 9l.36 67.74a10.35 10.35 0 0 1-5.16 9l-58.62 34a10.4 10.4 0 0 1-10.4.02l-59-33.8a10.4 10.4 0 0 1-5.24-8.97z" stroke="#000" stroke-width="3" fill="#fff7a1"/><path d="M119.6 375.68l70.27 31.77M119.6 375.7l-.47-.22M189.86 407.44l.47.2M190 492.98v-85.46" stroke="#000" fill="none"/><path d="M190.5 493.5l-.8-.03-.2-.03v-.48h1z" stroke="#000" stroke-width=".05"/><path d="M190 407.53v-.5M258.6 374.28l-68.56 33.35" stroke="#000" fill="none"/><path d="M258.8 374.73l-.32-.68h.57l1.24-.1.22-.05z" stroke="#000" stroke-width=".05"/><path d="M190.05 407.62l-.46.23M256.2 375.68l70.28 31.77M256.2 375.7l-.46-.22M326.47 407.44l.47.2M326.6 492.98v-85.46" stroke="#000" fill="none"/><path d="M327.1 493.5l-.8-.03-.2-.03v-.48h1z" stroke="#000" stroke-width=".05"/><path d="M326.6 407.53v-.5M395.2 374.28l-68.55 33.35M395.2 374.28l.46-.22M326.66 407.62l-.46.23M47.9 256.92l68.9 34.95" stroke="#000" fill="none"/><path d="M48.15 256.48l-.45.9-.45-.23.22-.45.26-.43z" stroke="#000" stroke-width=".05"/><path d="M116.78 291.86l.46.23M116.78 136.02l69.3 31.76M116.8 136.03l-.47-.22M186.06 167.78l.46.2M186.2 253.3v-85.44" stroke="#000" fill="none"/><path d="M186.7 253.83l-.8-.03-.2-.03v-.47h1z" stroke="#000" stroke-width=".05"/><path d="M186.2 167.87v-.5M253.14 133.32l-66.9 34.63" stroke="#000" fill="none"/><path d="M253.6 133.1l.22.44-.46.24-.46-.9.4-.2z" stroke="#000" stroke-width=".05"/><path d="M186.24 167.95l-.46.23M117.36 378.3v-85.44M117.36 378.3v.5M117.36 292.87v-.5" stroke="#000" fill="none"/><path d="M322.7 252.3l-64.17 40.48" stroke="#fff" fill="none"/><path d="M323.13 252.03l.24.44-.4.26-.54-.84.4-.27z" stroke="#fff" stroke-width=".05" fill="#fff"/><path d="M258.54 292.78l-.43.27M185.44 257.55L258 292.6" stroke="#fff" fill="none"/><path d="M185.67 257.1l-.44.9-.45-.2.2-.47.27-.43z" stroke="#fff" stroke-width=".05" fill="#fff"/><path d="M258 292.58l.46.22" stroke="#fff" fill="none"/><path d="M184.55 257.57l-66.97 34.87" stroke="#000" fill="none"/><path d="M185 257.33l-.28.6-.4-.8 1.16-.6z" stroke="#000" stroke-width=".05"/><path d="M117.6 292.43l-.46.24" stroke="#000" fill="none"/><path d="M258.5 292.25a.25.25 0 0 1 .25.25v79a.25.25 0 0 1-.25.25.25.25 0 0 1-.25-.25v-79a.25.25 0 0 1 .25-.25z" stroke="#fff" stroke-width=".5" fill="none"/></g></svg>