<svg width="17" height="16" viewBox="0 0 17 16" fill="none" xmlns="http://www.w3.org/2000/svg">
<path d="M8.03894 16C12.4787 16 16.0779 12.4183 16.0779 8C16.0779 3.58172 12.4787 0 8.03894 0C3.59916 0 0 3.58172 0 8C0 12.4183 3.59916 16 8.03894 16Z" fill="#627EEA"/>
<path d="M8.28906 2V6.435L12.0558 8.11L8.28906 2Z" fill="white" fill-opacity="0.602"/>
<path d="M8.29069 2L4.52344 8.11L8.29069 6.435V2Z" fill="white"/>
<path d="M8.28906 10.9839V13.9974L12.0583 8.80786L8.28906 10.9839Z" fill="white" fill-opacity="0.602"/>
<path d="M8.29069 13.9974V10.9834L4.52344 8.80786L8.29069 13.9974Z" fill="white"/>
<path d="M8.28906 10.2865L12.0558 8.11003L8.28906 6.43604V10.2865Z" fill="white" fill-opacity="0.2"/>
<path d="M4.52344 8.11003L8.29069 10.2865V6.43604L4.52344 8.11003Z" fill="white" fill-opacity="0.602"/>
</svg>
