<?xml version="1.0" encoding="utf-8"?>
<!-- Generator: Adobe Illustrator 26.2.1, SVG Export Plug-In . SVG Version: 6.00 Build 0)  -->
<svg version="1.1" xmlns="http://www.w3.org/2000/svg" xmlns:xlink="http://www.w3.org/1999/xlink" x="0px" y="0px"
	 viewBox="0 0 1446.46 545.91" style="enable-background:new 0 0 1446.46 545.91;" xml:space="preserve">
<style type="text/css">
	.st0{display:none;}
	.st1{display:inline;fill:#1F1F1F;}
	.st2{display:inline;fill:#FFFFFF;}
	.st3{display:inline;fill:none;stroke:#000000;stroke-width:0.9;}
	.st4{display:inline;}
	.st5{display:inline;fill:#7E0DE6;}
	.st6{display:inline;opacity:0;fill:#FFFFFF;}
	.st7{fill:#8200FF;stroke:#000000;stroke-width:4;stroke-miterlimit:10;}
	.st8{fill:none;}
	.st9{stroke:#000000;stroke-width:4;stroke-miterlimit:10;}
	.st10{font-family:'Verdana';}
	.st11{font-size:180px;}
	.st12{stroke:#000000;stroke-miterlimit:10;}
	.st13{font-size:100px;}
</style>
<g id="Image" class="st0">
	<rect x="-172.63" y="-168.64" class="st1" width="1309.5" height="1029.6"/>
	<path class="st2" d="M-182.53-203.29c0-2.7,2.7-2.7,2.7-2.7h1650.6c2.7,0,2.7,2.7,2.7,2.7v1191.6c0,2.7-2.7,2.7-2.7,2.7h-1650.6
		c-2.7,0-2.7-2.7-2.7-2.7V-203.29z"/>
	<path class="st3" d="M-182.53-203.29c0-2.7,2.7-2.7,2.7-2.7h1650.6c2.7,0,2.7,2.7,2.7,2.7v1191.6c0,2.7-2.7,2.7-2.7,2.7h-1650.6
		c-2.7,0-2.7-2.7-2.7-2.7V-203.29z"/>
	<path class="st4" d="M499.79,364.65c9.04,0,11.62-7.23,11.62-16.79c0-10.33-2.58-16.79-11.11-16.79c-8.78,0-11.62,6.72-11.62,16.79
		C488.68,357.15,491.27,364.65,499.79,364.65z M500.05,322.28c16.53,0,24.8,9.3,24.8,25.57c0,16.53-9.04,25.57-25.06,25.57
		c-15.76,0-24.54-9.3-24.54-25.57C475.25,331.84,484.04,322.28,500.05,322.28z"/>
	<path class="st4" d="M585.03,331.84c-13.69,2.32-7.23,25.83-8.78,40.55h-12.66v-13.82v-13.82c0.26-6.97-1.29-12.66-7.49-12.92
		c-13.69,2.58-6.97,25.83-8.52,40.55h-12.92l-0.26-49.08h12.14c0.52,3.1-0.26,7.23,0.77,9.82c2.58-13.69,26.09-14.46,27.9,0
		c3.36-5.68,6.2-11.11,15.24-10.85c21.18,0.26,13.17,29.96,14.72,50.11h-12.66v-13.82v-13.82
		C592.26,338.3,591.23,332.36,585.03,331.84z"/>
	<path class="st4" d="M667.69,331.84c-13.69,2.32-7.23,25.83-8.78,40.55h-12.66v-13.82v-13.82c0.26-6.97-1.29-12.66-7.49-12.92
		c-13.69,2.58-6.97,25.83-8.52,40.55h-12.92l-0.26-49.08h12.14c0.52,3.1-0.26,7.23,0.77,9.82c2.58-13.69,26.09-14.46,27.9,0
		c3.36-5.68,6.2-11.11,15.24-10.85c21.18,0.26,13.17,29.96,14.72,50.11h-12.66v-13.82v-13.82
		C674.92,338.3,673.89,332.36,667.69,331.84z"/>
	<path class="st4" d="M715.47,373.43c-22.47,0.26-14.98-29.19-16.27-50.11h12.92c1.81,14.72-5.94,38.74,8.52,40.55
		c15.5-1.29,9.04-25.06,10.33-40.55h12.91l0.26,49.08H732c-0.52-3.1,0.26-7.23-0.77-9.82C728.13,369.04,724,373.43,715.47,373.43z"
		/>
	<path class="st4" d="M784.95,322.28c22.47-0.26,14.98,29.19,16.27,50.11h-12.91c-1.81-14.72,5.94-40.55-8.78-40.55
		c-15.24,0-8.78,25.06-10.07,40.55h-12.92l-0.26-49.08h12.14c0.52,3.1-0.26,7.23,0.77,9.82
		C772.3,326.42,776.43,322.54,784.95,322.28z"/>
	<path class="st4" d="M842.81,342.17c1.29-11.88-14.72-16.27-18.08-5.42c-0.52,1.55-1.03,3.36-1.03,5.42H842.81z M854.44,360
		c-3.36,7.75-9.56,13.69-21.18,13.43c-15.5-0.52-22.99-9.56-22.99-25.83c0-16.27,7.75-25.31,23.25-25.31
		c16.01,0,21.44,11.62,21.7,27.9H823.7c0,8.01,2.07,14.21,10.07,14.46c4.65,0,7.75-1.81,8.78-5.68L854.44,360z"/>
	<path class="st5" d="M171.13,12.71c0-2.7,2.7-2.7,2.7-2.7H339.2c2.65,0,2.65,2.7,2.65,2.7l0.04,152.05
		c-0.04,2.66-2.74,2.66-2.74,2.66l-165.33,0.04c-2.7-0.04-2.7-2.74-2.7-2.74V12.71z"/>
	<path class="st3" d="M171.13,12.71c0-2.7,2.7-2.7,2.7-2.7H339.2c2.65,0,2.65,2.7,2.65,2.7l0.04,152.05
		c-0.04,2.66-2.74,2.66-2.74,2.66l-165.33,0.04c-2.7-0.04-2.7-2.74-2.7-2.74V12.71z"/>
	<path class="st5" d="M-11.53,209.81c0-2.7,2.7-2.7,2.7-2.7h165.37c2.65,0,2.65,2.7,2.65,2.7l0.05,152.06
		c-0.05,2.65-2.75,2.65-2.75,2.65l-165.33,0.05c-2.7-0.05-2.7-2.75-2.7-2.75V209.81z"/>
	<path class="st3" d="M-11.53,209.81c0-2.7,2.7-2.7,2.7-2.7h165.37c2.65,0,2.65,2.7,2.65,2.7l0.05,152.06
		c-0.05,2.65-2.75,2.65-2.75,2.65l-165.33,0.05c-2.7-0.05-2.7-2.75-2.7-2.75V209.81z"/>
	<path class="st5" d="M168.02,406.46c0-2.7,2.7-2.7,2.7-2.7H336.1c2.65,0,2.65,2.7,2.65,2.7l0.05,152.05
		c-0.05,2.65-2.75,2.65-2.75,2.65l-165.33,0.05c-2.7-0.05-2.7-2.75-2.7-2.75V406.46z"/>
	<path class="st3" d="M168.02,406.46c0-2.7,2.7-2.7,2.7-2.7H336.1c2.65,0,2.65,2.7,2.65,2.7l0.05,152.05
		c-0.05,2.65-2.75,2.65-2.75,2.65l-165.33,0.05c-2.7-0.05-2.7-2.75-2.7-2.75V406.46z"/>
	<path class="st5" d="M38.87,86.51c0-2.7,2.7-2.7,2.7-2.7h111.69c2.7,0,2.7,2.7,2.7,2.7v99.9c0,2.7-2.7,2.7-2.7,2.7H41.57
		c-2.7,0-2.7-2.7-2.7-2.7V86.51z"/>
	<path class="st3" d="M38.87,86.51c0-2.7,2.7-2.7,2.7-2.7h111.69c2.7,0,2.7,2.7,2.7,2.7v99.9c0,2.7-2.7,2.7-2.7,2.7H41.57
		c-2.7,0-2.7-2.7-2.7-2.7V86.51z"/>
	<path class="st5" d="M33.02,384.41c0-2.7,2.7-2.7,2.7-2.7h111.69c2.7,0,2.7,2.7,2.7,2.7v99.9c0,2.7-2.7,2.7-2.7,2.7H35.72
		c-2.7,0-2.7-2.7-2.7-2.7V384.41z"/>
	<path class="st3" d="M33.02,384.41c0-2.7,2.7-2.7,2.7-2.7h111.69c2.7,0,2.7,2.7,2.7,2.7v99.9c0,2.7-2.7,2.7-2.7,2.7H35.72
		c-2.7,0-2.7-2.7-2.7-2.7V384.41z"/>
	<rect x="654.47" y="388.01" class="st6" width="320.71" height="72"/>
	<path class="st4" d="M680.24,416.61l-5.1-15.3c-1.42,5.38-3.4,10.2-5.1,15.3H680.24z M684.91,431.06l-3.12-8.92h-13.32l-3.12,8.92
		H658l12.75-35.13h8.64l12.75,35.13H684.91z"/>
	<polygon class="st4" points="696.81,431.06 696.81,413.49 696.81,395.92 704.18,395.92 704.18,413.49 704.18,431.06 	"/>
	<path class="st4" d="M731.24,413.35c0,7.51,2.97,12.32,10.34,12.47c5.24,0.14,7.65-3.12,9.21-6.66l6.37,2.41
		c-2.41,5.95-7.22,10.06-15.58,10.06c-11.62,0-17-6.52-17.71-18.27c-0.99-15.58,15.44-22.1,27.77-15.16
		c2.55,1.42,4.11,4.11,5.1,7.08l-6.52,1.7c-1.13-3.54-4.25-5.81-8.78-5.81C734.07,401.17,731.38,405.98,731.24,413.35z"/>
	<path class="st4" d="M773.88,426.81c4.96,0,6.37-3.97,6.37-9.21c0-5.67-1.42-9.21-6.09-9.21c-4.82,0-6.37,3.68-6.37,9.21
		C767.79,422.7,769.2,426.81,773.88,426.81z M774.02,403.57c9.07,0,13.6,5.1,13.6,14.02c0,9.07-4.96,14.02-13.74,14.02
		c-8.64,0-13.46-5.1-13.46-14.02C760.42,408.82,765.24,403.57,774.02,403.57z"/>
	<polygon class="st4" points="793,431.06 793,412.57 793,394.08 800.08,394.08 800.08,412.57 800.08,431.06 	"/>
	<polygon class="st4" points="807.17,431.06 807.17,412.57 807.17,394.08 814.25,394.08 814.25,412.57 814.25,431.06 	"/>
	<path class="st4" d="M837.62,414.48c0.71-6.52-8.07-8.92-9.92-2.97c-0.28,0.85-0.57,1.84-0.57,2.97H837.62z M844,424.26
		c-1.84,4.25-5.24,7.51-11.62,7.37c-8.5-0.28-12.61-5.24-12.61-14.17c0-8.92,4.25-13.88,12.75-13.88c8.78,0,11.76,6.37,11.9,15.3
		h-17.28c0,4.39,1.13,7.79,5.52,7.93c2.55,0,4.25-0.99,4.82-3.12L844,424.26z"/>
	<path class="st4" d="M873.04,422.13c-0.99,5.95-5.38,9.49-12.18,9.49c-8.36,0-11.9-5.38-12.75-13.88
		c-1.7-15.58,21.82-19.41,24.65-5.1l-6.94,0.28c-0.28-2.69-2.12-4.53-4.96-4.53c-4.25,0-4.96,3.97-5.38,9.07
		c-0.85,10.48,9.21,12.32,10.48,4.25L873.04,422.13z"/>
	<path class="st4" d="M890.75,430.63c-5.1,1.98-12.32,0.99-12.32-5.95v-7.93v-7.93h-3.4v-2.34v-2.34h3.82l2.12-6.37h4.39v3.19v3.19
		h5.1v2.34v2.34h-5.1v7.01v7.01c-0.14,3.26,2.27,4.39,5.38,3.54v2.12V430.63z"/>
	<path class="st4" d="M894.86,431.06V417.6v-13.46h7.08v13.46v13.46H894.86z M894.86,399.32v-2.62v-2.62h7.08v2.62v2.62H894.86z"/>
	<polygon class="st4" points="923.61,431.06 915.25,431.06 905.62,404.14 913.13,404.14 919.5,425.39 926.3,404.14 933.67,404.14 	
		"/>
	<path class="st4" d="M953.64,414.48c0.71-6.52-8.07-8.92-9.92-2.97c-0.28,0.85-0.57,1.84-0.57,2.97H953.64z M960.02,424.26
		c-1.84,4.25-5.24,7.51-11.62,7.37c-8.5-0.28-12.61-5.24-12.61-14.17c0-8.92,4.25-13.88,12.75-13.88c8.78,0,11.76,6.37,11.9,15.3
		h-17.28c0,4.39,1.13,7.79,5.52,7.93c2.55,0,4.25-0.99,4.82-3.12L960.02,424.26z"/>
	<path class="st5" d="M357.07,91.46c0-2.7,2.7-2.7,2.7-2.7h111.69c2.7,0,2.7,2.7,2.7,2.7v99.9c0,2.7-2.7,2.7-2.7,2.7H359.77
		c-2.7,0-2.7-2.7-2.7-2.7V91.46z"/>
	<path class="st3" d="M357.07,91.46c0-2.7,2.7-2.7,2.7-2.7h111.69c2.7,0,2.7,2.7,2.7,2.7v99.9c0,2.7-2.7,2.7-2.7,2.7H359.77
		c-2.7,0-2.7-2.7-2.7-2.7V91.46z"/>
	<path class="st5" d="M357.07,379.91c0-2.7,2.7-2.7,2.7-2.7h111.69c2.7,0,2.7,2.7,2.7,2.7v99.9c0,2.7-2.7,2.7-2.7,2.7H359.77
		c-2.7,0-2.7-2.7-2.7-2.7V379.91z"/>
	<path class="st3" d="M357.07,379.91c0-2.7,2.7-2.7,2.7-2.7h111.69c2.7,0,2.7,2.7,2.7,2.7v99.9c0,2.7-2.7,2.7-2.7,2.7H359.77
		c-2.7,0-2.7-2.7-2.7-2.7V379.91z"/>
</g>
<g id="Lines">
	<path class="st7" d="M329.9,174.46H202.32c-6.6,0-12-5.4-12-12V42.14c0-6.6,5.4-12,12-12H329.9c6.6,0,12,5.4,12,12v120.32
		C341.9,169.06,336.5,174.46,329.9,174.46z"/>
	<path class="st7" d="M162.46,355.19H34.88c-6.6,0-12-5.4-12-12V222.87c0-6.6,5.4-12,12-12h127.58c6.6,0,12,5.4,12,12v120.32
		C174.46,349.79,169.06,355.19,162.46,355.19z"/>
	<path class="st7" d="M327.08,535.48H199.5c-6.6,0-12-5.4-12-12V403.16c0-6.6,5.4-12,12-12h127.58c6.6,0,12,5.4,12,12v120.32
		C339.08,530.08,333.68,535.48,327.08,535.48z"/>
	<path class="st7" d="M460.33,195.13h-90.01c-6.6,0-12-5.4-12-12V98.58c0-6.6,5.4-12,12-12h90.01c6.6,0,12,5.4,12,12v84.55
		C472.33,189.73,466.93,195.13,460.33,195.13z"/>
	<path class="st7" d="M165.27,195.13H75.27c-6.6,0-12-5.4-12-12V98.58c0-6.6,5.4-12,12-12h90.01c6.6,0,12,5.4,12,12v84.55
		C177.27,189.73,171.87,195.13,165.27,195.13z"/>
	<path class="st7" d="M460.33,479.47h-90.01c-6.6,0-12-5.4-12-12v-84.55c0-6.6,5.4-12,12-12h90.01c6.6,0,12,5.4,12,12v84.55
		C472.33,474.07,466.93,479.47,460.33,479.47z"/>
	<path class="st7" d="M156.58,479.47H66.57c-6.6,0-12-5.4-12-12v-84.55c0-6.6,5.4-12,12-12h90.01c6.6,0,12,5.4,12,12v84.55
		C168.58,474.07,163.18,479.47,156.58,479.47z"/>
	<rect x="472.95" y="252.14" class="st8" width="682.85" height="135.1"/> -->
	<text transform="matrix(1 0 0 1 472.9541 366.1437)" class="st9 st10 st11">ommune</text> -->
	 <rect x="808.91" y="397.55" class="st8" width="637.56" height="148.36"/>
	 <text transform="matrix(1 0 0 1 808.9066 473.5483)" class="st12 st10 st13">AI Collective</text>
</g>
</svg>
