<svg width="100" height="120" viewBox="0 0 100 120" fill="none" xmlns="http://www.w3.org/2000/svg">
<g clip-path="url(#clip0_0_3)">
<path d="M51.9696 11.1015L103.539 39.3842V55.8626L51.9696 27.58V11.1015Z" fill="#FF7C00" fill-opacity="0.75"/>
<path d="M103.521 39.3847L51.7627 67.7738V84.3583L103.521 55.9692V39.3847Z" fill="#FF7C00"/>
<path d="M-0.000595093 39.3847L51.7627 67.7738V84.3584L-0.000595093 55.9693V39.3847Z" fill="#FF7C00" fill-opacity="0.75"/>
<path d="M51.9641 10.9954L0.00665283 39.3842V55.9688L51.9641 27.5801V10.9954Z" fill="#FF7C00"/>
<path d="M51.9696 39.703L103.539 67.9855V84.464L51.9696 56.1815V39.703Z" fill="#FF7C00" fill-opacity="0.75"/>
<path d="M103.521 67.9851L51.7627 96.3742V112.959L103.521 84.5696V67.9851Z" fill="#FF7C00"/>
<path d="M-0.000595093 67.9851L51.7627 96.3742V112.959L-0.000595093 84.5697V67.9851Z" fill="#FF7C00" fill-opacity="0.75"/>
<path d="M51.9641 39.5958L0.00665283 67.9845V84.5691L51.9641 56.1805V39.5958Z" fill="#FF7C00"/>
</g>
<defs>
<clipPath id="clip0_0_3">
<rect width="512" height="119.202" fill="white"/>
</clipPath>
</defs>
</svg>
