<svg width="2019" height="1435" viewBox="0 0 2019 1435" fill="none" xmlns="http://www.w3.org/2000/svg">
<g opacity="0.1" clip-path="url(#clip0_360_6699)">
<path d="M-763 729.63L1103.98 -1014" stroke="#D9DBE9" stroke-width="25"/>
<path d="M-152.865 1405.48L1714.11 -338.151" stroke="#D9DBE9" stroke-width="28"/>
<path d="M-457.933 1067.55L1409.04 -676.075" stroke="#D9DBE9" stroke-width="34"/>
<path d="M152.201 1743.4L2019.18 -0.226352" stroke="#D9DBE9" stroke-width="22"/>
<path d="M508.116 2137.65L2375.09 394.019" stroke="#D9DBE9" stroke-width="15"/>
<path d="M-610.466 898.593L1256.51 -845.038" stroke="#D9DBE9" stroke-width="37"/>
<path d="M-0.330811 1574.44L1866.65 -169.189" stroke="#D9DBE9" stroke-width="25"/>
<path d="M-305.398 1236.52L1561.58 -507.113" stroke="#D9DBE9" stroke-width="31"/>
<path d="M304.736 1912.37L1238.22 1040.55L2171.71 168.736" stroke="#D9DBE9" stroke-width="19"/>
<path d="M660.648 2306.61L2527.62 562.981" stroke="#D9DBE9" stroke-width="12"/>
<path d="M-712.155 785.951L1154.82 -957.679" stroke="#D9DBE9" stroke-width="39"/>
<path d="M-102.021 1461.8L1764.96 -281.83" stroke="#D9DBE9" stroke-width="27"/>
<path d="M-407.088 1123.88L1459.89 -619.755" stroke="#D9DBE9" stroke-width="33"/>
<path d="M203.047 1799.72L2070.02 56.0937" stroke="#D9DBE9" stroke-width="21"/>
<path d="M558.96 2193.97L2425.94 450.339" stroke="#D9DBE9" stroke-width="14"/>
<path d="M-559.622 954.913L1307.35 -788.717" stroke="#D9DBE9" stroke-width="36"/>
<path d="M50.5132 1630.76L1917.49 -112.868" stroke="#D9DBE9" stroke-width="24"/>
<path d="M-254.555 1292.84L1612.42 -450.793" stroke="#D9DBE9" stroke-width="30"/>
<path d="M355.582 1968.69L2222.56 225.056" stroke="#D9DBE9" stroke-width="18"/>
<path d="M711.492 2362.93L2578.47 619.301" stroke="#D9DBE9" stroke-width="11"/>
<path d="M813.184 2475.57L2680.16 731.943" stroke="#D9DBE9" stroke-width="10"/>
<path d="M-661.312 842.272L1205.66 -901.358" stroke="#D9DBE9" stroke-width="38"/>
<path d="M-51.1763 1518.12L1815.8 -225.51" stroke="#D9DBE9" stroke-width="26"/>
<path d="M-356.244 1180.2L1510.73 -563.434" stroke="#D9DBE9" stroke-width="32"/>
<path d="M253.891 1856.05L2120.87 112.415" stroke="#D9DBE9" stroke-width="20"/>
<path d="M609.804 2250.29L2476.78 506.66" stroke="#D9DBE9" stroke-width="13"/>
<path d="M-508.778 1011.23L1358.2 -732.396" stroke="#D9DBE9" stroke-width="35"/>
<path d="M101.357 1687.08L1968.33 -56.5476" stroke="#D9DBE9" stroke-width="23"/>
<path d="M457.271 2081.33L2324.25 337.698" stroke="#D9DBE9" stroke-width="16"/>
<path d="M-203.71 1349.16L1663.27 -394.472" stroke="#D9DBE9" stroke-width="29"/>
<path d="M406.425 2025.01L2273.4 281.377" stroke="#D9DBE9" stroke-width="17"/>
<path d="M762.338 2419.25L2629.31 675.623" stroke="#D9DBE9" stroke-width="10"/>
<path d="M864.026 2531.89L2731 788.264" stroke="#D9DBE9" stroke-width="10"/>
</g>
<defs>
<clipPath id="clip0_360_6699">
<rect width="2019" height="1435" fill="white"/>
</clipPath>
</defs>
</svg>
